<?xml version="1.0" encoding="UTF-8" standalone="no"?>
<!-- Created with Inkscape (http://www.inkscape.org/) -->

<svg
   width="154.20171mm"
   height="143.62788mm"
   viewBox="0 0 154.2017 143.62789"
   version="1.1"
   id="svg1"
   xml:space="preserve"
   sodipodi:docname="africa_mu.svg"
   xmlns:inkscape="http://www.inkscape.org/namespaces/inkscape"
   xmlns:sodipodi="http://sodipodi.sourceforge.net/DTD/sodipodi-0.dtd"
   xmlns="http://www.w3.org/2000/svg"
   xmlns:svg="http://www.w3.org/2000/svg"><sodipodi:namedview
     id="namedview1"
     pagecolor="#ffffff"
     bordercolor="#666666"
     borderopacity="1.0"
     inkscape:showpageshadow="2"
     inkscape:pageopacity="0.0"
     inkscape:pagecheckerboard="0"
     inkscape:deskcolor="#d1d1d1"
     inkscape:document-units="mm" /><defs
     id="defs1"><style
       type="text/css"
       id="style6">path { fill-rule: evenodd; }
</style></defs><g
     inkscape:label="Layer 1"
     inkscape:groupmode="layer"
     id="layer1"
     transform="translate(208.58493,-327.27789)"><rect
       style="fill:none;fill-opacity:1;stroke:none;stroke-width:0.165;stroke-linecap:square;stroke-dasharray:0.165, 0.495001"
       id="rect1"
       width="154.20171"
       height="143.62788"
       x="-208.58493"
       y="327.27789" /><g
       id="g5"
       transform="translate(-1.22281,1.3951544)"><g
         style="fill:#fdf6ec;fill-opacity:1;stroke:#1a0f0a;stroke-linejoin:round;stroke-opacity:1"
         id="g1"
         transform="matrix(0.13609434,0,0,0.12908887,-210.97397,333.21679)"><path
   inkscape:connector-curvature="0"
   id="AO"
   data-name="Angola"
   data-id="AO"
   d="m 495.3,598.6 -36,-0.2 -4.3,1.7 -3.5,-0.3 -5.1,1.9 -1.1,2.7 6,8.7 2.4,9.3 3.6,13.4 -3.8,5.5 -0.6,2.8 2.9,8.3 3.1,8.4 3.6,5 0.6,7.8 -1.4,10.3 -4,6.1 -7.1,9.1 -2.9,5.6 -4.1,12.5 -0.8,5.9 -4.3,12.7 -1.9,12.2 1,8.7 5.9,-2.7 7.2,-2.3 7.8,0.4 7.1,6.3 1.9,-1 48.8,-0.6 8.2,6.6 29.1,2 22.4,-5.7 -7.6,-8.6 -7.8,-11.3 1.6,-44 25.3,0.1 -1,-4.7 2,-5.2 -2,-6.5 1.5,-6.7 -1.2,-4.3 -5.5,-0.8 -7.6,2 -5.3,-0.3 -3,1.3 0.9,-16.5 -3.9,-5.1 -0.8,-8.5 1.9,-8.4 -2.4,-5.3 -0.1,-8.7 -14.8,0.1 1.1,-5 -6.2,0.1 -0.7,2.4 -7.6,0.5 -3.1,8.1 -1.9,3.4 -6.7,-1.9 -4,1.9 -8.1,1.1 -4.6,-7.2 -2.7,-4.5 -3.5,-8.3 z m -47.4,-2.7 0.4,-6 2,-3.5 4.5,-2.9 -4.6,-4.8 -3.7,2.3 -5,6 3.3,10.4 z"
   style="fill:#fdf6ec;fill-opacity:1;stroke:#1a0f0a;stroke-opacity:1" /><path
   inkscape:connector-curvature="0"
   id="BI"
   data-name="Burundi"
   data-id="BI"
   d="m 669,556.1 -0.6,-5.4 v 0 l -6.5,-0.9 -3.8,7.9 -7.4,-1.1 3,6.3 0.1,2.4 4.3,13.2 v 0.6 l 1.2,-0.2 4.5,-5 4.9,-7.2 3,-2.9 -0.1,-4.5 z"
   style="fill:#fdf6ec;fill-opacity:1;stroke:#1a0f0a;stroke-opacity:1" /><path
   inkscape:connector-curvature="0"
   id="BJ"
   data-name="Benin"
   data-id="BJ"
   d="m 340,356 -9.3,-8 -4.3,0.1 -4.1,4 -2.6,4.2 -6,1.2 -2.5,6.1 -4.1,1.6 -1.6,7.2 3.7,4.1 4.3,4.9 0.4,6.8 2.5,2.8 -0.5,31.8 3,9.5 10.1,-1.6 0.6,-22.3 -0.3,-8.8 2.3,-8.7 3.7,-4.3 5.9,-8.5 -1.3,-3.7 2.4,-5.6 -2.8,-8.2 z"
   style="fill:#fdf6ec;fill-opacity:1;stroke:#1a0f0a;stroke-opacity:1" /><path
   inkscape:connector-curvature="0"
   id="BF"
   data-name="Burkina Faso"
   data-id="BF"
   d="m 300.7,310.8 h -7.8 l -3,-2.6 -6.7,1.9 -11.3,5.8 -2.3,4.3 -9.4,6.2 -1.7,3.6 -5.1,2.8 -5.8,-1.9 -3.4,3.4 -1.8,9.5 -9.7,11.4 0.3,4.7 -3.4,5.9 0.8,8 5.5,3 2.1,4.6 5.4,2.9 4.3,-3.4 5.7,-0.6 8.3,3.6 -1.6,-10.4 0.3,-7.9 21.1,-0.6 5.4,1 3.9,-2.2 5.6,1.1 10.7,0.3 4.1,-1.6 2.5,-6.1 6,-1.2 2.6,-4.2 0.3,-9.5 -14,-3.1 -0.4,-6.7 -6.9,-9 -1.6,-6.3 z"
   style="fill:#fdf6ec;fill-opacity:1;stroke:#1a0f0a;stroke-opacity:1" /><path
   inkscape:connector-curvature="0"
   id="BW"
   data-name="Botswana"
   data-id="BW"
   d="m 600.6,762.7 -2.2,-1 -6.9,3.1 h -3.6 l -7.9,5.4 -4.4,-5.7 -18.7,4.9 -9,0.4 -1.9,49.3 -11.8,0.5 -1.4,40.4 3.2,2 6.5,13.2 -1.5,8.4 2.5,4.9 8.5,-1.4 6.2,-6.2 5.8,-4.2 3.2,-6.6 6,-3.2 4.9,1.7 5.5,3.9 9.6,0.6 7.8,-3.2 1.4,-4.3 2.4,-6.6 6.5,-1.1 3.9,-5.2 4.4,-9.3 11.2,-10.3 17.3,-10.2 -7.3,-6.2 -9.2,-2.1 -3.1,-8.8 0.2,-4.9 -5.1,-1.5 -13,-15.2 -3.5,-8 -2.3,-2.4 z"
   style="fill:#fdf6ec;fill-opacity:1;stroke:#1a0f0a;stroke-opacity:1" /><path
   inkscape:connector-curvature="0"
   id="CF"
   data-name="Central African Rep."
   data-id="CF"
   d="m 587,398.1 -1,-0.7 -4.2,-4 -0.9,-4.3 1.9,-5.7 -0.1,-5.7 -7.2,-8.6 -1.5,-5.9 -7.7,2.3 -6,5.6 -8.6,15.1 -11.3,6.4 -11.8,-0.8 -3.4,1.2 1.2,4.9 -6.3,4.8 -5.1,5.4 -15.3,5.3 -3,-3.1 -2.1,-0.3 -2.2,3.6 -10,1 -6.1,14 -2.9,2.6 -0.8,10.7 1.2,5.8 -0.9,4.1 5.8,7.3 1,4.9 4.6,7.2 5.6,4.4 0.6,6.3 1.3,4 6.3,-12.8 7.3,-7.4 8.2,2.4 7.9,0.7 1,-9.6 4.7,-7.1 6.5,-4.4 10.1,4.7 7.8,5.1 9,1.4 9.1,2.7 3.6,-8.4 1.6,-1.1 5.6,1.4 13.5,-6.9 4.9,3 3.9,-0.5 1.8,-3.3 4.5,-1.2 9.2,1.4 7.9,0.4 4,-1.5 -2,-4.4 -9.2,-5.5 -3.2,-8.3 -5.2,-6 -8.3,-7.2 -0.1,-4.5 -6.8,-5.5 z"
   style="fill:#fdf6ec;fill-opacity:1;stroke:#1a0f0a;stroke-opacity:1" /><path
   inkscape:connector-curvature="0"
   id="CI"
   data-name="Côte d'Ivoire"
   data-id="CI"
   d="m 230.4,373.8 -5,2.1 -2.9,1.7 -1.8,-5.9 -3.5,1.6 -2.1,-0.3 -2.3,4 -9.4,-0.1 -3.3,-2.1 -1.6,1.3 -2.5,1.1 -1,4.7 2.8,5.7 3,11.1 -4.6,1.6 -1.1,1.9 0.9,2.7 -0.8,6.1 h -1.9 l -0.6,4 1.2,6.7 -2.7,6.1 3.6,3.8 3.8,0.9 5.2,5.8 0.3,5.5 -1.1,1.7 -1,11.4 2.3,0.4 12.1,-5.1 8.5,-4 14.5,-2.4 7.8,-0.2 8.5,2.7 5.6,-0.1 0.5,-5.5 -5.2,-11.9 3.2,-15.6 5.1,-11.6 -3.2,-19.7 -8.3,-3.6 -5.7,0.6 -4.3,3.4 -5.4,-2.9 -2.1,-4.6 z"
   style="fill:#fdf6ec;fill-opacity:1;stroke:#1a0f0a;stroke-opacity:1" /><path
   inkscape:connector-curvature="0"
   id="CM"
   data-name="Cameroon"
   data-id="CM"
   d="m 477.5,366.6 0.4,-9.2 -1,-9.1 -4.9,-8.9 -3.4,0.8 -0.4,4.4 4.9,5.5 -1.3,2.5 -0.5,4.6 -10.2,10.7 -3.1,8.8 -1.6,7.2 -2.6,3.1 -2.4,9.7 -6.4,5.7 -1.9,7 -2.7,5.6 -1.1,5.7 -8.3,4.7 -6.9,-5.7 -4.6,0.2 -7.2,8.1 -3.6,0.1 -5.7,13.4 -3.1,9.8 -0.1,3.8 3.1,2 2.5,6.2 5.6,2.3 4.8,9.2 -1.8,10.9 19.9,0.3 5.8,-0.9 7.4,1.9 7.3,-1.8 1.5,0.7 15.4,0.6 9.9,3.6 9.7,3.3 0.9,-7.5 -1.3,-4 -0.6,-6.3 -5.6,-4.4 -4.6,-7.2 -1,-4.9 -5.8,-7.3 0.9,-4.1 -1.2,-5.8 0.8,-10.7 2.9,-2.6 6.1,-14 1.8,-3.7 -3.9,-9.6 -1.8,-5.7 -5.3,-2.3 -7.2,-8.1 2.5,-6.5 5.6,1.3 3.4,-0.9 6.8,0.1 z"
   style="fill:#fdf6ec;fill-opacity:1;stroke:#1a0f0a;stroke-opacity:1" /><path
   inkscape:connector-curvature="0"
   id="CD"
   data-name="Dem. Rep. Congo"
   data-id="CD"
   d="m 618.3,446 -9.2,-1.4 -4.5,1.2 -1.8,3.3 -3.9,0.5 -4.9,-3 -13.5,6.9 -5.6,-1.4 -1.6,1.1 -3.6,8.4 -9.1,-2.7 -9,-1.4 -7.8,-5.1 -10.1,-4.7 -6.5,4.4 -4.7,7.1 -1,9.6 -0.7,8.4 -3.6,7.4 -2.4,8.6 -1.5,12.3 0.7,7.8 -2,4.8 -0.3,5.1 -1.4,4.4 -8.1,6.7 -5.6,7.1 -5.3,13.4 0.3,11.4 -3.1,4.4 -7.2,6.8 -7.2,8.7 -4.5,-2.5 -0.8,-3.9 -6.6,-0.1 -4.2,5.3 -3.2,-1.4 -4.5,2.9 -2,3.5 -0.4,6 -3.1,1.5 1.6,4.3 5.1,-1.9 3.5,0.3 4.3,-1.7 36,0.2 2.9,10.3 3.5,8.3 2.7,4.5 4.6,7.2 8.1,-1.1 4,-1.9 6.7,1.9 1.9,-3.4 3.1,-8.1 7.6,-0.5 0.7,-2.4 6.2,-0.1 -1.1,5 14.8,-0.1 0.1,8.7 2.4,5.3 -1.9,8.4 0.8,8.5 3.9,5.1 -0.9,16.5 3,-1.3 5.3,0.3 7.6,-2 5.5,0.8 4.2,0.3 0.6,4.3 5.7,-0.3 7.7,1.3 3.9,6.2 9.7,2 7.5,-4.4 2.6,7.3 9.2,1.9 4.3,5.9 4.8,7.6 9.3,0.1 -0.6,-14.9 -3.4,2.5 -8.4,-5.4 -3.2,-2.4 1.9,-13.9 2.5,-16.4 -2.6,-6.1 3.6,-8.8 3.3,-1.7 16.4,-2.3 2.1,0.6 0.6,-2.3 -3.4,-3.7 -1.5,-7.6 -7.3,-7.6 -4.1,-9.9 2.3,-5.8 -3.2,-7.8 2.4,-22.1 0.1,0.2 -0.1,-2.4 -3,-6.3 1.2,-7.6 1.7,-1 0.5,-8.3 3.5,-3.8 0.1,-10.5 2.9,-5.3 0.6,-11.1 2.6,-6.4 4.6,-7.2 4.7,-3.7 3.9,-4.9 -4.9,-1.9 0.6,-16.1 v 0 l -10.9,-9.2 -2.9,-5.9 -6.8,2.9 -5.7,-0.9 -3.2,2.3 -5.5,-1.7 -7.5,-11.4 -4,1.5 z"
   style="fill:#fdf6ec;fill-opacity:1;stroke:#1a0f0a;stroke-opacity:1" /><path
   inkscape:connector-curvature="0"
   id="CG"
   data-name="Congo"
   data-id="CG"
   d="m 521.5,468.8 -7.9,-0.7 -8.2,-2.4 -7.3,7.4 -6.3,12.8 -0.9,7.5 -9.7,-3.3 -9.9,-3.6 -15.4,-0.6 -0.9,6.1 3.4,7.1 9.1,-1.1 3.1,2.7 -5.3,16.1 5.8,8.2 1.3,10.8 -1.6,9.2 -3.7,6.5 -10.8,-0.6 -6.5,-6.6 -1,6.1 -8.3,1.7 -4.2,3.5 4.6,9.1 -9.3,7.7 9.9,14.6 5,-6 3.7,-2.3 4.6,4.8 3.2,1.4 4.2,-5.3 6.6,0.1 0.8,3.9 4.5,2.5 7.2,-8.7 7.2,-6.8 3.1,-4.4 -0.3,-11.4 5.3,-13.4 5.6,-7.1 8.1,-6.7 1.4,-4.4 0.3,-5.1 2,-4.8 -0.7,-7.8 1.5,-12.3 2.4,-8.6 3.6,-7.4 z"
   style="fill:#fdf6ec;fill-opacity:1;stroke:#1a0f0a;stroke-opacity:1" /><path
   inkscape:connector-curvature="0"
   id="DJ"
   data-name="Djibouti"
   data-id="DJ"
   d="m 820.3,358.7 -5.3,-3.8 6.8,-3.3 0.1,-5.7 -3,-4.3 -3.6,3.4 -5.2,-1.2 -4,6.1 -3.9,6.5 1.1,3.8 0.3,4.2 6.8,0.2 2.9,-0.9 2.8,2.4 z"
   style="fill:#fdf6ec;fill-opacity:1;stroke:#1a0f0a;stroke-opacity:1" /><path
   inkscape:connector-curvature="0"
   id="DZ"
   data-name="Algeria"
   data-id="DZ"
   d="M 392.4,5.7 384.6,6.5 379.8,3.3 367.6,3.4 357,8.9 351.2,6.8 332.3,8 l -19.4,2.5 -11,4.3 -7.2,5.8 -12.4,2.4 -11.1,7.7 4.2,9 0.7,8.4 3.9,14.7 3.1,2.9 -2.2,5.4 -15.2,2.3 -5.4,5.1 -6.7,1.2 -0.6,10.2 -13.8,5.4 -4.6,7 -9.6,3.7 -11.8,2.1 -19.2,10.2 -0.2,16.3 v 1 l -0.3,2.7 44.1,33.5 40,30.2 40.4,30.2 2.9,6.4 7.5,4 5.5,2.2 0.2,8.8 13.3,-1.3 16.9,-6.2 34.5,-27.1 40.5,-26.4 -5.4,-8.7 -9.6,-6.4 -5.5,2.5 -4.3,-7.7 -0.6,-5.9 -7.2,-10.1 4.6,-5.8 -1.3,-8.7 1.4,-7.6 -1,-6.3 1.8,-11.3 -0.8,-6.4 -4.1,-12.2 -5.7,-24.7 -7.3,-5.6 -0.2,-3.3 -9.7,-8.3 -1.3,-10.4 7,-7.8 2.4,-11.6 -2.3,-13.4 z"
   style="fill:#fdf6ec;fill-opacity:1;stroke:#1a0f0a;stroke-opacity:1" /><path
   inkscape:connector-curvature="0"
   id="EG"
   data-name="Egypt"
   data-id="EG"
   d="m 628.8,88.1 -11.9,-4 -11.5,-3.7 -15.6,0.2 -3.7,6.6 2.2,5.9 -2.4,8.5 4.2,11.2 2.9,49.2 2.2,50.9 h 48.1 46.4 47.4 l -2.2,-2.8 -14.7,-12.4 -0.9,-9 2.2,-2.4 -11.6,-15.3 -4.4,-7.9 -4.9,-7.5 -10.5,-21.6 -8.4,-13.9 -6.1,-14.5 1.1,-1.3 10.1,19.8 5.8,6.2 4.3,4.4 2.5,-2.4 2.7,-7.2 1.6,-10.4 2.8,-5.6 -1.5,-3.5 -8.5,-20.1 v 0 l -5.4,3.4 -9.2,-0.8 -9.6,-3.2 -2.3,4.5 -3.8,-6.8 -8.5,-1.8 -10.2,1.2 -4.5,3.9 -8.6,4.4 z"
   style="fill:#fdf6ec;fill-opacity:1;stroke:#1a0f0a;stroke-opacity:1" /><path
   inkscape:connector-curvature="0"
   id="ER"
   data-name="Eritrea"
   data-id="ER"
   d="m 777.6,303.8 -7,-6.8 -4,-12.7 -7.8,-16 -5.7,7.9 -8.8,2.3 -3.6,4.2 -0.7,9.2 -4.3,20.3 1.5,5.6 14.3,2.9 3.3,-10.4 7.6,6.3 7,-3.2 3,2.9 8.3,0.1 10.8,5.6 3.4,4.8 5.5,4.4 5.4,8.1 4.3,4.5 5.2,1.2 3.6,-3.4 -6.2,-4.2 -4,-4.7 -6.9,-8 -7.1,-7.9 z"
   style="fill:#fdf6ec;fill-opacity:1;stroke:#1a0f0a;stroke-opacity:1" /><path
   inkscape:connector-curvature="0"
   id="ET"
   data-name="Ethiopia"
   data-id="ET"
   d="m 754.8,310.3 -3.3,10.4 -14.3,-2.9 -1.4,11.9 -4.5,13.6 -7.1,6.8 -4.8,10.6 -1.1,5.7 -5.6,3.8 -3.3,14.5 0.1,1.7 0.4,10.8 -1.8,4.2 -6.4,0.3 -4,7.9 7.5,1 6.3,6.7 2.2,5.6 5.7,3.2 7.4,15 6.4,2.4 0.1,7.7 4.2,4.6 h 8.5 l 15.7,11.7 3.8,0.2 2.9,-0.4 2.7,1.6 8.2,1.1 3.5,-5.8 11.1,-5.8 4.9,4.7 h 8.4 l 3.3,-4.4 7.8,-0.2 10.7,-9.8 15.9,-0.6 33.5,-41.5 -10.3,0.1 -40.3,-16.4 -4.8,-5 -4.6,-6.6 -4.8,-7.7 2.5,-4.9 -2.8,-2.4 -2.9,0.9 -6.8,-0.2 -0.3,-4.2 -1.1,-3.8 3.9,-6.5 4,-6.1 -4.3,-4.5 -5.4,-8.1 -5.5,-4.4 -3.4,-4.8 -10.8,-5.6 -8.3,-0.1 -3,-2.9 -7,3.2 z"
   style="fill:#fdf6ec;fill-opacity:1;stroke:#1a0f0a;stroke-opacity:1" /><path
   inkscape:connector-curvature="0"
   id="GA"
   data-name="Gabon"
   data-id="GA"
   d="m 455.9,485.9 -1.5,-0.7 -7.3,1.8 -7.4,-1.9 -5.8,0.9 0.1,16.7 -17.7,-0.2 -4.2,0.8 -2.4,10.3 -3,10.1 -2.7,4.4 -0.3,4.6 7.3,14.3 8.1,11.4 12.5,14 9.3,-7.7 -4.6,-9.1 4.2,-3.5 8.3,-1.7 1,-6.1 6.5,6.6 10.8,0.6 3.7,-6.5 1.6,-9.2 -1.3,-10.8 -5.8,-8.2 5.3,-16.1 -3.1,-2.7 -9.1,1.1 -3.4,-7.1 z"
   style="fill:#fdf6ec;fill-opacity:1;stroke:#1a0f0a;stroke-opacity:1" /><path
   inkscape:connector-curvature="0"
   id="GH"
   data-name="Ghana"
   data-id="GH"
   d="m 296.4,364.9 -5.6,-1.1 -3.9,2.2 -5.4,-1 -21.1,0.6 -0.3,7.9 1.6,10.4 3.2,19.7 -5.1,11.6 -3.2,15.6 5.2,11.9 -0.5,5.5 10.9,3.9 11,-4 6.7,-4.7 19.2,-8.1 -2.8,-4.9 -3.2,-8.8 -1,-6.8 2.7,-12.5 -3,-5 -1.2,-10.9 v -10.1 l -5.1,-7.1 z"
   style="fill:#fdf6ec;fill-opacity:1;stroke:#1a0f0a;stroke-opacity:1" /><path
   inkscape:connector-curvature="0"
   id="GN"
   data-name="Guinea"
   data-id="GN"
   d="m 156.4,345.2 -1.8,0.7 -6.6,-1.1 -0.9,1.6 -2.7,0.3 -8.7,-3.4 -5.8,-0.1 -0.3,4.7 -1.3,1.4 0.9,4.6 -1.9,1.8 -2.7,0.1 -3.2,2.3 -3.7,-0.3 -5.5,6.8 3.6,2.2 1.7,3.1 1.3,6.1 3,2.7 3.1,1.8 4.7,5.4 5.3,8.2 6.5,-6.1 1.5,-3.8 2.1,-3 3.3,-0.3 2.9,-2.6 h 9.7 l 3.3,5 2.6,5.8 -0.4,4 1.9,3.6 -0.1,5.1 3.3,-0.8 2.6,-0.3 3.2,-1.6 5.1,8.5 -0.9,5.6 2.4,2.9 3.4,0.1 2.6,-5.6 3.4,0.4 h 1.9 l 0.8,-6.1 -0.9,-2.7 1.1,-1.9 4.6,-1.6 -3,-11.1 -2.8,-5.7 1,-4.7 2.5,-1.1 -3.7,-4 0.7,-4.1 -1.6,-1.6 -2.6,1.3 0.6,-4.5 2.5,-3.5 -5,-5.8 -1.4,-3.8 -2.7,-3.1 -2.4,-0.3 -2.9,1.9 -4,1.8 -3.3,3 -5.2,-1.1 -3.3,-3.5 -2,-0.4 -3.2,1.8 h -2 z"
   style="fill:#fdf6ec;fill-opacity:1;stroke:#1a0f0a;stroke-opacity:1" /><path
   inkscape:connector-curvature="0"
   id="GM"
   data-name="Gambia"
   data-id="GM"
   d="m 91.9,335.4 11,0.2 3,-1.9 2.2,-0.1 4.5,-3.2 5.2,2.9 5.2,0.3 5.3,-3.1 -2.4,-4 -4,2.3 -3.8,-0.1 -4.7,-3.4 -3.8,0.2 -2.8,3.3 -13.2,0.4 z"
   style="fill:#fdf6ec;fill-opacity:1;stroke:#1a0f0a;stroke-opacity:1" /><path
   inkscape:connector-curvature="0"
   id="GW"
   data-name="Guinea-Bissau"
   data-id="GW"
   d="m 129.9,343.2 -22.4,-0.6 -3.3,1.6 -4,-0.5 -6.5,2.3 0.7,2.9 3.7,3 -0.1,2.1 2.7,3.9 5.1,0.9 6.4,5.8 5.5,-6.8 3.7,0.3 3.2,-2.3 2.7,-0.1 1.9,-1.8 -0.9,-4.6 1.3,-1.4 z"
   style="fill:#fdf6ec;fill-opacity:1;stroke:#1a0f0a;stroke-opacity:1" /><path
   inkscape:connector-curvature="0"
   id="GQ"
   data-name="Eq. Guinea"
   data-id="GQ"
   d="m 433.9,486 -19.9,-0.3 -4.1,15.5 2.2,2.1 4.2,-0.8 17.7,0.2 z"
   style="fill:#fdf6ec;fill-opacity:1;stroke:#1a0f0a;stroke-opacity:1" /><path
   inkscape:connector-curvature="0"
   id="KE"
   data-name="Kenya"
   data-id="KE"
   d="m 807.2,463.1 h -8.4 l -4.9,-4.7 -11.1,5.8 -3.5,5.8 -8.2,-1.1 -2.7,-1.6 -2.9,0.4 -3.8,-0.2 -15.7,-11.7 h -8.5 l -4.2,-4.6 -0.1,-7.7 -6.4,-2.4 -8.1,9.1 -7.4,8.3 5.9,9.6 1.5,7 5.5,15.8 -4.4,10.1 -5.9,9.2 -3.5,5.6 v 0.7 l 2.9,5.2 -0.8,10.3 44.1,28.2 0.7,8 17.3,13.8 5,-4.6 2.5,-9.2 4,-5.5 1.9,-9.8 4.6,-1 3.1,-5.8 8.6,-5.5 -7.2,-11.4 -0.4,-50.4 z"
   style="fill:#fdf6ec;fill-opacity:1;stroke:#1a0f0a;stroke-opacity:1" /><path
   inkscape:connector-curvature="0"
   id="LR"
   data-name="Liberia"
   data-id="LR"
   d="m 193.3,411 -3.4,-0.4 -2.6,5.6 -3.4,-0.1 -2.4,-2.9 0.9,-5.6 -5.1,-8.5 -3.2,1.6 -2.6,0.3 -5.7,6.5 -5.5,7.5 -0.7,4 -2.9,4.4 8.1,8.9 10.4,7.6 11,10.5 12.6,6.6 3.2,-0.1 1,-11.4 1.1,-1.7 -0.3,-5.5 -5.2,-5.8 -3.8,-0.9 -3.6,-3.8 2.7,-6.1 -1.2,-6.7 z"
   style="fill:#fdf6ec;fill-opacity:1;stroke:#1a0f0a;stroke-opacity:1" /><path
   inkscape:connector-curvature="0"
   id="LY"
   data-name="Libya"
   data-id="LY"
   d="m 589.8,80.6 -3.1,-4.5 -11.7,-1.6 -3.9,-2.4 h -4.4 l -4.4,-6.2 -15.9,-2.8 -7.9,1.8 -7.9,6.5 -3.3,6.7 3.4,10.6 -5.3,6.3 -5.5,3.6 L 507,91.7 490.3,86 479.7,83.3 473.6,71 l -15.7,-6.1 -9.8,-2.3 -4.8,1.2 -13.8,-4.8 -0.3,10.6 -5.6,4 -3.4,4.4 -7.9,5.3 1.5,5.7 -0.9,5.8 -5.6,3.2 4.1,12.2 0.8,6.4 -1.8,11.3 1,6.3 -1.4,7.6 1.3,8.7 -4.6,5.8 7.2,10.1 0.6,5.9 4.3,7.7 5.5,-2.5 9.6,6.4 5.4,8.7 19,6 6.9,7.5 8.3,-5.1 11.9,-7.6 48.4,26.5 48.7,26.5 -0.1,-5.8 h 13.8 l -1,-27.7 -2.2,-50.9 -2.9,-49.2 -4.2,-11.2 2.4,-8.5 -2.2,-5.9 z"
   style="fill:#fdf6ec;fill-opacity:1;stroke:#1a0f0a;stroke-opacity:1" /><path
   inkscape:connector-curvature="0"
   id="LS"
   data-name="Lesotho"
   data-id="LS"
   d="m 625.3,939.9 2.5,-4.4 6.7,-2.2 2.4,-4.5 4.1,-6.7 -3.8,-4.2 -4.8,-4.2 -5.7,2.8 -6.8,5.4 -6.9,8.7 8,10.6 z"
   style="fill:#fdf6ec;fill-opacity:1;stroke:#1a0f0a;stroke-opacity:1" /><path
   inkscape:connector-curvature="0"
   id="MA"
   data-name="Morocco"
   data-id="MA"
   d="m 271.2,30.7 -5,-0.1 -11.9,-3.1 -11,0.9 -6.8,-5.9 -8.5,-0.1 -3.8,8.6 -8,14.5 -8.7,5.7 -11.8,6.4 -7.7,9.3 -1.8,7.3 -4.8,11.8 2.5,17.2 -10.1,11.5 -6,3.7 -9.6,9.4 -11,1.6 -6.1,5.3 -0.2,0.2 -7.9,14.1 -8.1,5.1 -4.5,8.5 -0.5,7.4 -3.4,8.1 -4,2.2 -6.9,8.8 -4.4,9.8 0.7,4.6 -4.1,7.3 -4.7,3.7 -0.8,6.4 0.2,0.1 27,-1.1 1.6,-5 5,-6.2 4.4,-19.1 16.9,-15 6,-17.4 3.7,-1.1 4.2,-10.8 10,-1.4 4.2,1.8 h 5.4 l 3.9,-3.2 7.3,-0.4 -0.1,-7.5 v 0 h 1.8 l 0.2,-16.3 19.2,-10.2 11.8,-2.1 9.6,-3.7 4.6,-7 13.8,-5.4 0.6,-10.2 6.7,-1.2 5.4,-5.1 15.2,-2.3 2.2,-5.4 -3.1,-2.9 -3.9,-14.7 -0.7,-8.4 z"
   style="fill:#fdf6ec;fill-opacity:1;stroke:#1a0f0a;stroke-opacity:1" /><path
   inkscape:connector-curvature="0"
   id="MG"
   data-name="Madagascar"
   data-id="MG"
   d="m 902.9,704.8 -2.5,-9.1 -3,-5.9 -3.9,-5.9 -4.3,6.2 -0.7,8.3 -7.1,9.6 -5.1,-1.7 1.3,6 -4,6.9 -10.4,8.5 -7.3,7.9 -5.4,0.2 -4.6,2.5 -6.9,2.8 -6,0.6 -2.2,8.7 -4.7,7.8 0.2,12.7 1.7,8.7 2.4,6.6 -1.7,8.8 -6.4,10.5 -0.3,4.6 -5.7,2.4 -2.8,10 0.4,9.9 3.4,11 -0.1,12.3 2.6,7.3 9.1,5 6.5,3.5 10.9,-5.8 9.9,-3.3 6.8,-16.1 6.1,-19.2 9.3,-26.2 7.3,-19.1 5.9,-16.1 1.6,-11.7 3.5,-3.2 1.5,-5.9 -1.7,-10.2 2.6,-4.1 3.5,8.1 2.4,-4.1 1.7,-6.6 -2.8,-6.5 z"
   style="fill:#fdf6ec;fill-opacity:1;stroke:#1a0f0a;stroke-opacity:1" /><path
   inkscape:connector-curvature="0"
   id="ML"
   data-name="Mali"
   data-id="ML"
   d="m 347.4,252.3 -13.3,1.3 -0.2,-8.8 -5.5,-2.2 -7.5,-4 -2.9,-6.4 -40.4,-30.2 -40,-30.2 -18.2,0.2 5.1,59.7 5.4,59.7 2,1.8 -2.7,9.6 -48.5,0.2 -1.9,3.1 -4.6,-0.9 -6.9,2.7 -8.4,-3.8 -3.8,0.3 -2.2,8.2 -4.1,2.5 0.4,8.6 2.3,7.9 4.5,3.9 1,5.3 -0.6,4.4 0.6,5 h 2 l 3.2,-1.8 2,0.4 3.3,3.5 5.2,1.1 3.3,-3 4,-1.8 2.9,-1.9 2.4,0.3 2.7,3.1 1.4,3.8 5,5.8 -2.5,3.5 -0.6,4.5 2.6,-1.3 1.6,1.6 -0.7,4.1 3.7,4 1.6,-1.3 3.3,2.1 9.4,0.1 2.3,-4 2.1,0.3 3.5,-1.6 1.8,5.9 2.9,-1.7 5,-2.1 -0.8,-8 3.4,-5.9 -0.3,-4.7 9.7,-11.4 1.8,-9.5 3.4,-3.4 5.8,1.9 5.1,-2.8 1.7,-3.6 9.4,-6.2 2.3,-4.3 11.3,-5.8 6.7,-1.9 3,2.6 h 7.8 l 7.7,-0.6 4.5,-4.9 16.5,-1.2 10.7,-2.2 1,-8.5 6.6,-9.2 z"
   style="fill:#fdf6ec;fill-opacity:1;stroke:#1a0f0a;stroke-opacity:1" /><path
   inkscape:connector-curvature="0"
   id="MZ"
   data-name="Mozambique"
   data-id="MZ"
   d="m 788.2,666.2 -1.7,-6.2 v 0 0 l -10,8.1 -13.4,5.3 -7.3,-0.2 -4.5,4.2 -8.4,0.3 -3.3,1.8 -14.4,-3.9 -4.7,0.5 -3.3,13.1 1.4,15.8 h 0.7 l 4.2,4.4 4.6,10 0.3,17.8 -5.4,3 -4.1,9.6 -7.5,-8.6 -0.5,-9.7 2.9,-6.5 -0.5,-5.5 -4.7,-3.5 -3.3,1.2 -6.8,-6.6 -37.1,11.4 0.8,9.9 0.6,5.1 10,-0.3 5.5,3 2.5,3.4 5.7,1 6.1,4.4 -0.8,17.5 -2.8,9.6 -1,10.4 1.7,4.1 -1.7,8.1 -1.9,1.3 -3.6,9.9 -13.4,15.7 4.7,19.5 2.5,9.9 -3,15.4 0.7,5 1.3,6.2 0.6,6.1 9,0.1 1.5,-7.3 -2.9,-0.9 -0.6,-5.8 5.5,-5.2 14.8,-7.5 10.1,-4.6 5.3,-5 2.1,-5.7 -2.7,-2.4 2.4,-6.4 1.1,-13.6 -2.2,0.7 0.1,-4.1 -1.9,-8.1 -5.2,-10.5 1.6,-9.9 5.1,-3.2 8.9,-9.8 4.7,-2.5 14.4,-14.9 14,-6.7 11.3,-5.3 8.1,-8.5 5.2,-9.6 4.1,-9.9 -1.8,-6.8 0.4,-21.6 -1,-12.2 z"
   style="fill:#fdf6ec;fill-opacity:1;stroke:#1a0f0a;stroke-opacity:1" /><path
   inkscape:connector-curvature="0"
   id="MR"
   data-name="Mauritania"
   data-id="MR"
   d="m 237.6,171.8 -44.1,-33.5 -0.5,20.9 -38.9,-0.7 -0.4,35.4 -11.2,1.3 -3.1,7.1 1.9,20 -46.9,-0.1 -2.7,4.6 6.1,6 3,6.5 -1.4,6.9 1.3,6.9 1,13.7 -1.8,13 -3.5,6.8 0.9,7.5 4.2,-4.5 6,1.2 5.9,-3 6.8,-0.1 5.7,4 7.9,3.7 7.2,10.2 7.8,9.5 4.1,-2.5 2.2,-8.2 3.8,-0.3 8.4,3.8 6.9,-2.7 4.6,0.9 1.9,-3.1 48.5,-0.2 2.7,-9.6 -2,-1.8 -5.4,-59.7 -5.1,-59.7 z"
   style="fill:#fdf6ec;fill-opacity:1;stroke:#1a0f0a;stroke-opacity:1" /><path
   inkscape:connector-curvature="0"
   id="MU"
   data-name="Mauritius"
   data-id="MU"
   style="fill:#fdf6ec;fill-opacity:1;stroke:#1a0f0a;stroke-opacity:1"
   d="" />-75.6107,433.89878 c -0.01,0.0109 0.0105,0.004 0,0 z m 0.0302,0.002 c -3.8e-4,0.0189 -0.0236,-7e-5 -0.0278,0.0152 -0.0121,3.8e-4 -0.0147,0.0258 -0.0252,0.0126 -0.004,0.005 -9.6e-4,0.0174 -0.0126,0.0253 -0.0105,0.0126 0.0273,0.0132 0.005,0.0227 -0.008,-0.001 -0.0271,0.002 -0.0253,-8e-5 -0.015,-0.012 0.0137,-0.0196 0,-0.0278 -0.0108,0.005 -0.0233,9.5e-4 -0.0328,-0.005 -0.009,-10e-4 -9.5e-4,0.015 0.005,0.0228 0.007,0.0154 -0.005,0.0226 -0.0125,0.0326 -0.013,0.005 -0.01,0.02 -0.0153,0.0305 -0.006,0.01 -0.016,0.0161 -0.0303,0.0177 -0.0106,0.003 -0.0155,0.009 -0.0177,0.0253 -0.002,0.006 -0.003,0.0173 -0.01,0.0301 -0.007,0.006 -0.0152,0.0209 -0.008,0.033 0.0208,0.007 -0.012,0.0109 -0.0101,0.0227 0.002,0.0126 0.0149,0.0179 0.0202,0.0278 -0.0103,0.005 -0.0236,0.01 -0.0328,0.0152 -0.006,0.008 -0.0104,0.0212 -0.0152,0.0328 0.003,0.0151 0.005,0.0301 0.0152,0.0278 0.016,0.006 9.6e-4,0.0167 -0.007,-9e-5 -0.009,10e-4 -0.0323,0.009 -0.0252,0.0202 0.007,0.004 0.0182,0.0169 0.0253,0.0152 -0.0171,0.0171 0.0285,9.6e-4 0.005,0.0101 -3.8e-4,0.008 -0.016,0.0126 -0.0126,0 -0.009,-0.006 -0.026,-0.0189 -0.0304,-0.002 -0.0124,0.012 -0.009,0.0158 -0.0126,0.0303 -0.005,-9.6e-4 -0.0136,0.0212 -0.008,0 0.006,-0.008 -0.0156,-0.0179 -0.0252,-0.0104 -0.0131,0.003 -0.0221,0.01 -0.0353,0.0126 -0.0103,0.009 -0.0194,0.005 -0.0329,0.0101 -0.005,0.009 -0.0146,0.0186 -0.0202,0.0278 -0.0167,3.9e-4 -0.0218,0.0107 -0.0278,0.0202 -0.0188,0.005 -0.005,0.0139 -0.007,0.0276 -0.003,0.0184 -0.004,0.0216 -0.0229,0.0179 -1.9e-4,0.0143 -0.0181,0.0179 -0.0126,0.0303 -0.006,0.009 -0.009,0.0237 -0.0152,0.0329 0.014,0.009 0.001,0.0212 -0.002,0.0303 -0.001,0.0134 -0.0123,0.0214 -0.0152,0.0329 -0.005,0.0119 -0.0159,0.017 -0.0177,0.0303 -0.005,0.0114 -0.003,0.0312 0,0.0429 0.008,0.0108 -1.9e-4,0.0332 0.0152,0.0329 0.006,0.005 0.0266,0.0139 0.0126,0.0252 -0.012,0.006 -0.0209,0.01 -0.0278,0.0202 -0.004,0.0112 -3.9e-4,0.031 -0.008,0.0404 0.001,0.0144 0.0224,0.01 0.0228,0.0253 0.006,-9e-5 0.016,0.009 0,0.008 -0.0112,0.005 -0.0301,0.002 -0.0253,0.0227 -8e-5,0.0161 0.0233,0.009 0.0303,0.0177 0.0114,3e-5 0.0125,0.0216 -0.002,0.0202 -0.0202,0.002 7e-5,0.0154 -0.008,0.0303 9.5e-4,0.008 -0.004,0.0174 -0.0101,0.0278 -0.008,0.0131 -0.008,0.0148 -0.0175,0.0276 -0.006,0.009 -0.0132,0.0149 -0.0204,0.0255 -0.007,0.013 -0.0104,0.005 -0.0253,0.002 -0.01,-10e-4 -0.0405,-0.002 -0.0227,-0.0151 0.004,-0.0142 -0.014,-0.007 -0.0126,0.0101 -0.006,0.008 -0.0114,0.0216 -0.0151,0.0328 -0.004,0.011 -0.0141,0.029 0.002,0.0303 0.0139,0.002 0.0118,-0.0269 0.0253,-0.0177 0.0139,-9.6e-4 0.0269,-0.006 0.0328,0.005 0.006,0.0111 0.0116,0.0209 0.0177,0.0303 0.0128,0.003 0.009,0.0229 0.0202,0.0278 0.0127,0.003 0.0232,0.004 0.0303,-0.008 0.005,-0.0174 -0.002,0.027 0.0129,0.0171 0.009,0.007 0.0199,0.0121 0.0303,0.0177 0.0187,-0.003 0.0156,0.0164 0.0328,0.0151 0.0165,-1.9e-4 0.0159,0.0174 0.0353,0.0127 0.0176,0.001 0.0273,-0.005 0.0404,-0.008 0.007,-0.007 0.0104,-0.0272 0.0177,-0.0101 0.012,-0.0124 0.0152,0.009 0.0303,0.009 0.0165,-3.8e-4 0.0101,0.0219 0.0303,0.0177 0.007,0.0103 0.0161,0.006 0.0328,0.005 0.0131,-0.007 0.0303,1.9e-4 0.038,0.005 0.0132,0.0185 0.018,-0.0128 0.025,-0.005 -9.5e-4,0.0152 0.0165,0.0178 0.028,0.0128 0.0138,-0.007 0.0163,-0.006 0.0352,-0.01 0.005,-0.009 0.0264,-0.008 0.033,-0.008 0.014,-0.002 0.0234,-0.01 0.0354,-0.008 0.0163,1.9e-4 0.0209,-0.011 0.0303,-0.0177 0.008,-0.012 0.0176,-0.007 0.0328,-0.0101 0.008,-0.007 0.0252,-0.006 0.0295,-0.0172 0.01,0.008 0.0229,3.9e-4 0.0329,-0.005 0.0147,-0.004 0.0205,-0.003 0.0329,-0.0101 0.009,-0.008 0.0196,-0.008 0.0278,-0.0151 0.007,-0.004 0.0343,-0.008 0.0227,-0.0151 -0.015,0.0124 0.002,-0.0106 0.0101,-0.0127 0.008,3.8e-4 0.0178,-0.0136 0.0177,-0.0202 0.013,-0.005 0.0184,-0.009 0.0253,-0.0176 0.009,-0.006 0.0159,-0.0125 0.002,-0.0152 -0.0292,-0.003 0.008,-0.01 -0.005,-0.0126 0.006,-0.004 0.0181,0.0162 0.0278,0.005 0.009,0.0155 0.0157,-0.003 0.0227,-0.0101 0.01,-0.007 0.006,-0.0312 -0.005,-0.0328 -0.005,-0.003 -0.005,-0.0199 -0.0152,-0.008 -0.0138,0.005 -0.008,-0.0206 -0.0101,-0.0278 3.8e-4,-0.009 -0.0207,-0.0217 -0.0126,-0.005 -0.0136,-0.008 -0.009,-0.0154 -0.0202,-0.0227 -8e-5,-0.005 0.0169,-0.0122 0.0127,-0.0202 0.004,-0.008 0.001,-0.023 0.005,-0.0329 -0.0155,-0.012 0.0156,-0.0125 0.0177,-0.005 9.6e-4,0.0126 0.008,0.0259 0.0177,0.0101 0.0179,-1.7e-4 0.0147,0 0.0303,-0.008 0.006,-0.009 0.0131,-0.0186 0.0202,-0.0274 0.004,-0.0142 0.005,-0.0211 0.0177,-0.0202 0.009,0.007 0.0342,3.8e-4 0.0278,-0.0101 0.007,-0.008 -0.0106,-0.0285 0.008,-0.0202 0.012,0.007 0.035,-0.003 0.0177,-0.0101 -0.0217,1.7e-4 -0.0159,-0.008 -0.0103,-0.0251 -0.0111,-0.0162 0.0156,-0.0131 0.0202,-0.0227 3.8e-4,-0.015 -3.8e-4,-0.0281 -0.0106,-0.0324 -0.0186,-0.005 0.006,-0.0161 0.0101,-0.0227 0.006,0.009 0.0248,0.015 0.0253,-0.002 -0.006,-0.0127 -0.009,-0.0236 0.002,-0.0303 -0.0143,-0.009 0.007,-0.007 0.008,-0.0202 0.009,-0.0159 -0.0214,-0.0141 -0.003,-0.0253 0.0168,-0.0106 -0.0162,-0.0159 -0.0151,-0.0177 0.0145,-0.007 -0.0121,-0.004 -0.003,-0.0202 0.0159,-0.005 0.0279,10e-4 0.0329,-0.0102 0.0146,-0.004 0.002,-0.0245 -0.005,-0.0277 -0.003,-0.0142 -0.0169,-0.0157 -0.0202,-0.0278 1e-5,-0.016 -0.0173,-0.0147 -0.0202,-0.0278 -0.007,-0.005 -0.0198,-0.0147 -0.0177,-0.0303 0.005,-0.009 -0.01,-0.0204 -0.005,-0.0379 -0.007,-0.002 -0.0153,-0.0109 -0.0227,-0.0202 -0.0241,-0.007 -0.012,0.002 -0.005,0.0126 -0.004,0.0165 -0.0209,-0.022 -0.0177,-0.005 -0.008,0.0181 -0.007,-0.008 -0.0177,-0.0101 -0.013,-0.0179 0.0108,-1.9e-4 0.0127,-0.0152 0.003,-0.0193 -0.0144,1.7e-4 -0.0228,-0.005 -0.0185,0.006 -0.007,-0.014 0.005,-0.008 0.0236,0.008 -0.012,-0.014 0.002,-0.0101 0.0112,-0.008 0.0254,0.003 0.0278,-0.0151 -0.0137,-0.0153 0.0188,-0.017 0.005,-0.0277 -0.007,-0.0117 -0.0108,-0.0208 -0.0177,-0.0303 -0.002,-0.0115 -0.0216,-0.008 -0.0296,-0.0151 -0.0163,-0.003 -0.0229,7e-5 -0.0328,-0.005 -3.8e-4,0 -0.0179,-0.005 -0.0228,-0.0152 0.001,-0.0138 -0.0133,-0.004 -0.005,-0.0177 0.0249,-0.008 -0.0124,0.004 -0.005,-0.008 -0.007,-0.009 -0.0123,-0.0197 -0.0228,-0.0253 -0.006,-0.003 -0.0103,-0.0187 -0.0126,-0.0252 -0.01,-1.9e-4 0.006,-0.0183 -0.0126,-0.0152 -0.002,-9.6e-4 0.01,-0.0151 -0.003,-0.0202 0.004,10e-4 0.0153,-0.0208 0.008,-0.0303 -0.0161,-0.002 -0.001,-0.009 -0.005,-0.0227 0.009,-0.009 -0.0214,-0.0123 -0.0127,-0.0152 0.0206,0.007 0.0105,-0.0275 0.0127,-0.0202 -0.0146,-0.005 -0.0235,-0.002 -0.0354,-0.008 -0.008,-0.0114 -0.0207,-0.007 -0.0228,-0.0202 -0.007,0.005 -0.006,0.0209 -0.0227,0.0101 -0.0113,-0.004 -0.0115,-0.0121 -0.0202,-0.0228 -0.0153,0.006 0.007,-0.0169 -0.0101,-0.0126 -0.009,-0.003 -0.0205,0.002 -0.0328,-0.005 -9.5e-4,-0.003 -0.0109,-0.006 -0.0152,-0.004 z m 0.0707,0.0404 c 0.002,0.008 0.005,-0.003 0,0 z m 0.0454,0.005 c 0.008,10e-4 -0.001,-0.008 0,0 z m 0.0479,0.0959 c -0.001,0.008 0.008,-10e-4 0,0 z m -0.002,0.0101 c -0.001,0.008 0.008,-0.001 0,0 z m 0.008,0.0353 c 0.008,10e-4 -0.001,-0.008 0,0 z m 0.008,0.0101 c 0.008,0.001 -10e-4,-0.008 0,0 z m 0.0977,0.19168 c 0.008,10e-4 -0.001,-0.008 0,0 z m 0.0277,0.0101 c -10e-4,0.008 0.008,-10e-4 0,0 z m -0.10279,0.57225 c 0.008,-0.002 -0.003,-0.005 0,0 z m 0.0151,0 c 0.008,0.001 -0.001,-0.008 0,0 z m -0.72884,-0.30269 c 0.003,-0.007 -0.007,0.003 0,0 z m 0.4765,-0.65052 c 0.001,-0.008 -0.008,10e-4 0,0 z m 0.13631,0.0253 c 0.008,9.6e-4 -0.002,0.0166 0,0 z m 0.0982,0.0532 c -0.0228,0.002 0.008,0.0213 -0.0101,0.0228 -0.009,-3e-5 -0.0138,0.008 -0.0126,0.0202 0.012,0.008 0.0175,-0.008 0.0278,-0.005 0.004,0.006 0.035,-3.9e-4 0.0151,-0.008 -0.008,-0.004 -0.0253,-0.0157 -0.0194,-0.0227 0.0184,0.005 0.0127,-3.8e-4 -9.6e-4,-0.008 z m -0.03,0.0528 c -0.002,0.013 0.008,-1.9e-4 0,0 z m 0.007,0.0278 c -0.001,0.008 0.008,-10e-4 0,0 z m -0.39124,0.18405 c 10e-4,0.004 -3.8e-4,0.007 0,0 z m -0.0802,0.0677 c -0.002,0.006 -0.005,0.0146 0,0 z m -0.005,0.0177 c 0.007,-0.002 -1e-5,0.003 0,0 z m 0.73346,0.18435 c -0.0164,0.006 -0.0138,0.005 -0.0127,0.0101 -0.0214,10e-4 0.01,10e-4 0,0.0177 -0.007,0.003 -0.0105,0.036 -0.005,0.0277 0.005,0.003 0.0279,-0.0157 0.0176,-0.0101 0.005,-0.003 -0.0139,-0.0192 0,-0.0277 -9.6e-4,-0.01 0.005,-0.0121 4e-5,-0.0177 z m -0.0228,0.0101 c 0.001,-0.008 -0.008,10e-4 0,0 z m -0.005,0.068 c -0.0103,0.01 0.016,0.005 0,0 z m -0.96783,0.28482 c -0.009,0.006 -0.0177,0.0142 -0.0151,0.0328 0.005,0.0116 0.008,-0.0201 0.0177,-0.0202 1.9e-4,-0.011 0.0145,-0.0102 -0.003,-0.0126 z m 0.83428,0.0101 c -0.0229,0.008 0.0146,0.0205 0.005,0.002 -0.005,0.003 3.8e-4,-0.005 -0.005,-0.002 z m -0.0504,0.0731 c -0.002,0.0146 0.014,-0.003 0,0 z m -0.80691,0.0232 c 0.009,-0.002 0.005,0.007 0,0 z m -0.002,0.0196 c -0.003,0.0276 0.0148,0.008 0,0 z&quot;
         style="fill:#fdf6ec;fill-opacity:1;stroke:#1a0f0a;stroke-opacity:1" /><path
   id="MW"
   data-name="Malawi"
   data-id="MW"
   d="m 714.6,711.7 0.3,-5.2 -2.7,-4.1 0.4,-6 -3.3,-10.2 3.7,-7.7 -0.2,-16.7 -4.1,-8.9 0.4,-1.5 v 0 l -2.3,-3.8 -11.9,-2.6 5.6,6.2 2.8,11.7 -2.2,3.8 -2.7,11.2 2,11.5 -4,4.8 -4.1,12.8 6.2,3.6 6.8,6.6 3.3,-1.2 4.7,3.5 0.5,5.5 -2.9,6.5 0.5,9.7 7.5,8.6 4.1,-9.6 5.4,-3 -0.3,-17.8 -4.6,-10 -4.2,-4.4 h -0.7 l 0.1,1.9 2.3,0.5 2.2,7.4 -0.4,1.7 -4.1,-5.3 -2.2,3.4 z"
   style="fill:#fdf6ec;fill-opacity:1;stroke:#1a0f0a;stroke-opacity:1" /><path
   inkscape:connector-curvature="0"
   id="NA"
   data-name="Namibia"
   data-id="NA"
   d="m 576,759.7 -22.4,5.7 -29.1,-2 -8.2,-6.6 -48.8,0.6 -1.9,1 -7.1,-6.3 -7.8,-0.4 -7.2,2.3 -5.9,2.7 0.6,10.6 9.5,13.5 2.5,8.7 6,16.6 5.9,11.4 4.6,5.7 1.3,7.6 -0.1,16.5 3.4,21.3 2.6,10.1 2.2,13.4 4.3,10.1 8.3,10.5 6,-6.8 4.5,3.7 1.7,6 5.2,1 7.3,2.6 6.4,-1 10.8,-7.1 2.2,-51.1 1.4,-40.4 11.8,-0.5 1.9,-49.3 9,-0.4 18.7,-4.9 4.4,5.7 7.9,-5.4 h 3.6 l 6.9,-3.1 v -1.2 l -4.7,-3.1 -7.8,-0.8 z"
   style="fill:#fdf6ec;fill-opacity:1;stroke:#1a0f0a;stroke-opacity:1" /><path
   inkscape:connector-curvature="0"
   id="NE"
   data-name="Niger"
   data-id="NE"
   d="m 458.3,198.6 -19,-6 -40.5,26.4 -34.5,27.1 -16.9,6.2 0.3,31.9 -6.6,9.2 -1,8.5 -10.7,2.2 -16.5,1.2 -4.5,4.9 -7.7,0.6 -1,6.7 1.6,6.3 6.9,9 0.4,6.7 14,3.1 -0.3,9.5 4.1,-4 4.3,-0.1 9.3,8 0.8,-12.4 3.5,-5.5 1.6,-8 3.2,-3 13,-1.6 12.2,5.1 4.6,5.3 6.1,0.2 5.8,-3.4 14.7,7.1 6.2,-0.3 7.1,-5.9 7.1,0.4 3.5,-1.9 6.5,0.8 9.4,4 9.4,-7.7 2.9,0.6 8.4,15.1 2.2,-0.3 0.4,-4.4 3.4,-0.8 1.1,-6.5 -7.8,-0.3 -0.1,-8.9 -5.1,-5.2 4.9,-18.2 15.2,-13 0.2,-18 4,-28.1 2.5,-6 -5.1,-4.7 -0.3,-4.4 -4.6,-3.6 -3.4,-21.5 -8.3,5.1 z"
   style="fill:#fdf6ec;fill-opacity:1;stroke:#1a0f0a;stroke-opacity:1" /><path
   inkscape:connector-curvature="0"
   id="NG"
   data-name="Nigeria"
   data-id="NG"
   d="m 468.2,344.6 -2.2,0.3 -8.4,-15.1 -2.9,-0.6 -9.4,7.7 -9.4,-4 -6.5,-0.8 -3.5,1.9 -7.1,-0.4 -7.1,5.9 -6.2,0.3 -14.7,-7.1 -5.8,3.4 -6.1,-0.2 -4.6,-5.3 -12.2,-5.1 -13,1.6 -3.2,3 -1.6,8 -3.5,5.5 -0.8,12.4 -0.5,4.6 2.8,8.2 -2.4,5.6 1.3,3.7 -5.9,8.5 -3.7,4.3 -2.3,8.7 0.3,8.8 -0.6,22.3 h 10.7 l 9.2,-0.1 8.6,9.1 4.1,10 6.5,8.6 9.8,0.3 4.7,-3.1 4.6,0.8 12.7,-5 3.1,-9.8 5.7,-13.4 3.6,-0.1 7.2,-8.1 4.6,-0.2 6.9,5.7 8.3,-4.7 1.1,-5.7 2.7,-5.6 1.9,-7 6.4,-5.7 2.4,-9.7 2.6,-3.1 1.6,-7.2 3.1,-8.8 10.2,-10.7 0.5,-4.6 1.3,-2.5 z"
   style="fill:#fdf6ec;fill-opacity:1;stroke:#1a0f0a;stroke-opacity:1" /><path
   inkscape:connector-curvature="0"
   id="RW"
   data-name="Rwanda"
   data-id="RW"
   d="m 667.9,533 -7.4,4.3 -2.9,-1.4 -3.5,3.8 -0.5,8.3 -1.7,1 -1.2,7.6 7.4,1.1 3.8,-7.9 6.5,0.9 v 0 l 3.5,-1.8 0.8,-8.1 z"
   style="fill:#fdf6ec;fill-opacity:1;stroke:#1a0f0a;stroke-opacity:1" /><path
   inkscape:connector-curvature="0"
   id="EH"
   data-name="W. Sahara"
   data-id="EH"
   d="M 193.8,134.6 H 192 v 0 l 0.1,7.5 -7.3,0.4 -3.9,3.2 h -5.4 l -4.2,-1.8 -10,1.4 -4.2,10.8 -3.7,1.1 -6,17.4 -16.9,15 -4.4,19.1 -5,6.2 -1.6,5 -27,1.1 -0.2,-0.1 -0.6,5.9 2.7,-4.6 46.9,0.1 -1.9,-20 3.1,-7.1 11.2,-1.3 0.4,-35.4 38.9,0.7 0.5,-20.9 0.3,-2.7 z"
   style="fill:#fdf6ec;fill-opacity:1;stroke:#1a0f0a;stroke-opacity:1" /><path
   inkscape:connector-curvature="0"
   id="SD"
   data-name="Sudan"
   data-id="SD"
   d="m 740,291.9 0.7,-9.2 3.6,-4.2 8.8,-2.3 5.7,-7.9 -6.9,-5.1 -4.8,-3.4 -5.3,-16.5 -2.5,-14.3 2.5,-2.5 -4.7,-13.6 h -47.4 -46.4 -48.1 l 1,27.7 h -13.8 l 0.1,5.8 2.4,54.9 -10.5,-0.9 -5.2,10.2 -3,8.5 2.6,3.2 -3.8,4.3 1.5,5.7 -3,5.8 -1.2,5 4.3,-0.8 2.6,5.4 0.3,8 4.6,4.1 -0.1,3.4 1.5,5.9 7.2,8.6 0.1,5.7 -1.9,5.7 0.9,4.3 4.2,4 1,0.7 3.8,-1.6 4.1,-2.6 2.9,-12.3 3.2,-6.4 8.8,-1.9 2.1,3.8 6.5,8 3.3,1.2 4.4,-2.3 8.7,0.4 1.8,2.9 h 12.1 l 0.3,-2.9 6.3,-2.6 1.1,-4 4.6,-2.9 10.4,8.1 6.2,-1.4 5.8,-10 6.5,-7.6 -1.3,-8.3 -3,-4 7.3,-0.8 0.7,-3 5.7,0.9 -1.2,10.2 1.7,10 6.5,5.5 1.5,4.7 v 6.9 l 1.7,0.3 -0.1,-1.7 3.3,-14.5 5.6,-3.8 1.1,-5.7 4.8,-10.6 7.1,-6.8 4.5,-13.6 1.4,-11.9 -1.5,-5.6 z"
   style="fill:#fdf6ec;fill-opacity:1;stroke:#1a0f0a;stroke-opacity:1" /><path
   inkscape:connector-curvature="0"
   id="SS"
   data-name="S. Sudan"
   data-id="SS"
   d="m 707.8,379.2 -1.5,-4.7 -6.5,-5.5 -1.7,-10 1.2,-10.2 -5.7,-0.9 -0.7,3 -7.3,0.8 3,4 1.3,8.3 -6.5,7.6 -5.8,10 -6.2,1.4 -10.4,-8.1 -4.6,2.9 -1.1,4 -6.3,2.6 -0.3,2.9 h -12.1 l -1.8,-2.9 -8.7,-0.4 -4.4,2.3 -3.3,-1.2 -6.5,-8 -2.1,-3.8 -8.8,1.9 -3.2,6.4 -2.9,12.3 -4.1,2.6 -3.8,1.6 8.4,5.4 6.8,5.5 0.1,4.5 8.3,7.2 5.2,6 3.2,8.3 9.2,5.5 2,4.4 7.5,11.4 5.5,1.7 3.2,-2.3 5.7,0.9 6.8,-2.9 2.9,5.9 10.9,9.2 v 0 l 5,-3.8 7.8,3.1 9.8,-3.3 8.6,0.1 7.4,-6.4 7.4,-8.3 8.1,-9.1 -7.4,-15 -5.7,-3.2 -2.2,-5.6 -6.3,-6.7 -7.5,-1 4,-7.9 6.4,-0.3 1.8,-4.2 -0.4,-10.8 -1.7,-0.3 z"
   style="fill:#fdf6ec;fill-opacity:1;stroke:#1a0f0a;stroke-opacity:1" /><path
   inkscape:connector-curvature="0"
   id="SN"
   data-name="Senegal"
   data-id="SN"
   d="m 148.8,315.1 -7.8,-9.5 -7.2,-10.2 -7.9,-3.7 -5.7,-4 -6.8,0.1 -5.9,3 -6,-1.2 -4.2,4.5 -3,7.1 -6.1,9.7 -5.4,2.6 6,4.9 4.8,10.8 13.2,-0.4 2.8,-3.3 3.8,-0.2 4.7,3.4 3.8,0.1 4,-2.3 2.4,4 -5.3,3.1 -5.2,-0.3 -5.2,-2.9 -4.5,3.2 -2.2,0.1 -3,1.9 -11,-0.2 1.8,10.6 6.5,-2.3 4,0.5 3.3,-1.6 22.4,0.6 5.8,0.1 8.7,3.4 2.7,-0.3 0.9,-1.6 6.6,1.1 1.8,-0.7 0.6,-4.4 -1,-5.3 -4.5,-3.9 -2.3,-7.9 z"
   style="fill:#fdf6ec;fill-opacity:1;stroke:#1a0f0a;stroke-opacity:1" /><path
   inkscape:connector-curvature="0"
   id="SL"
   data-name="Sierra Leone"
   data-id="SL"
   d="m 171.5,401 -3.3,0.8 0.1,-5.1 -1.9,-3.6 0.4,-4 -2.6,-5.8 -3.3,-5 h -9.7 l -2.9,2.6 -3.3,0.3 -2.1,3 -1.5,3.8 -6.5,6.1 1.4,10.3 2.1,5 6.3,7.4 8.7,5.6 3.3,1 2.9,-4.4 0.7,-4 5.5,-7.5 z"
   style="fill:#fdf6ec;fill-opacity:1;stroke:#1a0f0a;stroke-opacity:1" /><path
   inkscape:connector-curvature="0"
   id="SZ"
   data-name="Swaziland"
   data-id="SZ"
   d="m 674,874.9 -5.8,-2.6 -3.5,1 -1.4,4 -3.6,5.2 -0.2,4.8 6.6,7.5 7,-1.5 2.8,-6.1 -0.6,-6.1 z"
   style="fill:#fdf6ec;fill-opacity:1;stroke:#1a0f0a;stroke-opacity:1" /><path
   inkscape:connector-curvature="0"
   id="TD"
   data-name="Chad"
   data-id="TD"
   d="m 582.5,246.4 -48.7,-26.5 -48.4,-26.5 -11.9,7.6 3.4,21.5 4.6,3.6 0.3,4.4 5.1,4.7 -2.5,6 -4,28.1 -0.2,18 -15.2,13 -4.9,18.2 5.1,5.2 0.1,8.9 7.8,0.3 -1.1,6.5 4.9,8.9 1,9.1 -0.4,9.2 6.8,12.6 -6.8,-0.1 -3.4,0.9 -5.6,-1.3 -2.5,6.5 7.2,8.1 5.3,2.3 1.8,5.7 3.9,9.6 -1.8,3.7 10,-1 2.2,-3.6 2.1,0.3 3,3.1 15.3,-5.3 5.1,-5.4 6.3,-4.8 -1.2,-4.9 3.4,-1.2 11.8,0.8 11.3,-6.4 8.6,-15.1 6,-5.6 7.7,-2.3 0.1,-3.4 -4.6,-4.1 -0.3,-8 -2.6,-5.4 -4.3,0.8 1.2,-5 3,-5.8 -1.5,-5.7 3.8,-4.3 -2.6,-3.2 3,-8.5 5.2,-10.2 10.5,0.9 z"
   style="fill:#fdf6ec;fill-opacity:1;stroke:#1a0f0a;stroke-opacity:1" /><path
   inkscape:connector-curvature="0"
   id="TG"
   data-name="Togo"
   data-id="TG"
   d="m 307.1,365.2 -10.7,-0.3 -0.9,4.3 5.1,7.1 v 10.1 l 1.2,10.9 3,5 -2.7,12.5 1,6.8 3.2,8.8 2.8,4.9 9.8,-3 -3,-9.5 0.5,-31.8 -2.5,-2.8 -0.4,-6.8 -4.3,-4.9 -3.7,-4.1 z"
   style="fill:#fdf6ec;fill-opacity:1;stroke:#1a0f0a;stroke-opacity:1" /><path
   inkscape:connector-curvature="0"
   id="TN"
   data-name="Tunisia"
   data-id="TN"
   d="m 429.5,59 -4.5,-2.2 -3.2,-6.6 -6,-0.2 -2.4,-7.6 7.3,-7 1.1,-12.1 -4.1,-3.5 -0.2,-6.5 5.5,-7 -0.9,-2.7 -9.5,5.2 0.1,-7.1 -8.1,-1.7 -12.2,5.7 -2.2,7.2 2.3,13.4 -2.4,11.6 -7,7.8 1.3,10.4 9.7,8.3 0.2,3.3 7.3,5.6 5.7,24.7 5.6,-3.2 0.9,-5.8 -1.5,-5.7 7.9,-5.3 3.4,-4.4 5.6,-4 z"
   style="fill:#fdf6ec;fill-opacity:1;stroke:#1a0f0a;stroke-opacity:1" /><path
   inkscape:connector-curvature="0"
   id="TZ"
   data-name="Tanzania"
   data-id="TZ"
   d="m 672.2,531.3 -4.3,1.7 4.8,7.8 -0.8,8.1 -3.5,1.8 v 0 l 0.6,5.4 2.6,3.2 0.1,4.5 -3,2.9 -4.9,7.2 -4.5,5 -1.2,0.2 -0.7,5.9 2.3,2 -0.5,5.9 2.3,5.5 -2.9,5.3 9.7,9.4 0.8,8.5 5.9,14.2 v 0 l 0.6,0.4 4.8,2.3 7.7,2.4 6.8,4.1 11.9,2.6 2.3,3.8 v 0 l 0.8,-2.7 6.2,7.4 0.6,14.5 3.9,5.3 -0.1,0.2 4.7,-0.5 14.4,3.9 3.3,-1.8 8.4,-0.3 4.5,-4.2 7.3,0.2 13.4,-5.3 10,-8.1 v 0 l -4.4,-3 -4.7,-13.6 -4,-8.7 1,-6.6 -0.6,-4.2 3.5,-8.4 -0.3,-3.6 -7.7,-5 -0.6,-7.8 5.9,-17.1 -17.3,-13.8 -0.7,-8 -44.1,-28.2 v 0 l -6,6.1 -4.1,6.3 4.8,4.7 -7,3.4 -1.5,-1.6 -7.1,0.9 -5.5,3.1 -3.3,-5.4 2.3,-9.7 0.5,-8.3 v 0 0 z"
   style="fill:#fdf6ec;fill-opacity:1;stroke:#1a0f0a;stroke-opacity:1" /><path
   inkscape:connector-curvature="0"
   id="UG"
   data-name="Uganda"
   data-id="UG"
   d="m 711.3,458.5 -7.4,6.4 -8.6,-0.1 -9.8,3.3 -7.8,-3.1 -5,3.8 v 0 l -0.6,16.1 4.9,1.9 -3.9,4.9 -4.7,3.7 -4.6,7.2 -2.6,6.4 -0.6,11.1 -2.9,5.3 -0.1,10.5 2.9,1.4 7.4,-4.3 4.3,-1.7 13.4,0.2 v 0 l -0.7,-5.3 5.7,-8.1 7.7,-2 5.2,-3.3 6.3,2.7 0.6,1 v -0.7 l 3.5,-5.6 5.9,-9.2 4.4,-10.1 -5.5,-15.8 -1.5,-7 z"
   style="fill:#fdf6ec;fill-opacity:1;stroke:#1a0f0a;stroke-opacity:1" /><path
   inkscape:connector-curvature="0"
   id="ZA"
   data-name="South Africa"
   data-id="ZA"
   d="m 522.3,999 5.3,-0.3 7.5,-5.3 10,-2.2 12.3,-5.5 4.7,0.7 7.2,-1.7 12.3,2.7 5.9,-2.6 6.9,2 1.8,-3.8 6,-0.8 12.6,-5.3 9.3,-6.3 8.9,-8.3 14.4,-14.2 7.5,-9.9 3.9,-7.1 5.5,-7 2.5,-2 8.6,-7 3.5,-6.2 2.3,-11.5 3.7,-10.1 -9,-0.1 -2.8,6.1 -7,1.5 -6.6,-7.5 0.2,-4.8 3.6,-5.2 1.4,-4 3.5,-1 5.8,2.6 -0.7,-5 3,-15.4 -2.5,-9.9 -4.7,-19.5 -6.3,-1.3 -4.1,1.6 -5.7,-2.3 -4.9,-0.2 -17.3,10.2 -11.2,10.3 -4.4,9.3 -3.9,5.2 -6.5,1.1 -2.4,6.6 -1.4,4.3 -7.8,3.2 -9.6,-0.6 -5.5,-3.9 -4.9,-1.7 -6,3.2 -3.2,6.6 -5.8,4.2 -6.2,6.2 -8.5,1.4 -2.5,-4.9 1.5,-8.4 -6.5,-13.2 -3.2,-2 -2.2,51.1 -10.8,7.1 -6.4,1 -7.3,-2.6 -5.2,-1 -1.7,-6 -4.5,-3.7 -6,6.8 7.7,17.9 v 0.1 l 5.4,11.7 6.9,12.8 -0.2,10.6 -3.9,2.5 3.2,9.3 -0.5,8.1 1.3,3.8 0.7,-1.9 4.6,6.2 3.8,0.2 z m 103,-59.1 -4.3,1.3 -8,-10.6 6.9,-8.7 6.8,-5.4 5.7,-2.8 4.8,4.2 3.8,4.2 -4.1,6.7 -2.4,4.5 -6.7,2.2 z"
   style="fill:#fdf6ec;fill-opacity:1;stroke:#1a0f0a;stroke-opacity:1" /><path
   inkscape:connector-curvature="0"
   id="ZM"
   data-name="Zambia"
   data-id="ZM"
   d="m 671.3,636 -4.1,-1.1 0.7,-3 -2.1,-0.6 -16.4,2.3 -3.3,1.7 -3.6,8.8 2.6,6.1 -2.5,16.4 -1.9,13.9 3.2,2.4 8.4,5.4 3.4,-2.5 0.6,14.9 -9.3,-0.1 -4.8,-7.6 -4.3,-5.9 -9.2,-1.9 -2.6,-7.3 -7.5,4.4 -9.7,-2 -3.9,-6.2 -7.7,-1.3 -5.7,0.3 -0.6,-4.3 -4.2,-0.3 1.2,4.3 -1.5,6.7 2,6.5 -2,5.2 1,4.7 -25.3,-0.1 -1.6,44 7.8,11.3 7.6,8.6 9.9,-3.1 7.8,0.8 4.7,3.1 v 1.2 l 2.2,1 13.4,1.5 3.8,1.6 4.1,-0.3 7,-9 10.9,-11.4 4.4,-1 1.7,-4.8 7,-5.5 9.3,-1.9 -0.8,-9.9 37.1,-11.4 -6.2,-3.6 4.1,-12.8 4,-4.8 -2,-11.5 2.7,-11.2 2.2,-3.8 -2.8,-11.7 -5.6,-6.2 -6.8,-4.1 -7.7,-2.4 -4.8,-2.3 -0.6,-0.4 v 0 l 0.9,2.3 -2,0.8 z"
   style="fill:#fdf6ec;fill-opacity:1;stroke:#1a0f0a;stroke-opacity:1" /><path
   inkscape:connector-curvature="0"
   id="ZW"
   data-name="Zimbabwe"
   data-id="ZW"
   d="m 669.1,825.1 13.4,-15.7 3.6,-9.9 1.9,-1.3 1.7,-8.1 -1.7,-4.1 1,-10.4 2.8,-9.6 0.8,-17.5 -6.1,-4.4 -5.7,-1 -2.5,-3.4 -5.5,-3 -10,0.3 -0.6,-5.1 -9.3,1.9 -7,5.5 -1.7,4.8 -4.4,1 -10.9,11.4 -7,9 -4.1,0.3 -3.8,-1.6 -13.4,-1.5 4.2,11.1 2.3,2.4 3.5,8 13,15.2 5.1,1.5 -0.2,4.9 3.1,8.8 9.2,2.1 7.3,6.2 4.9,0.2 5.7,2.3 4.1,-1.6 z"
   style="fill:#fdf6ec;fill-opacity:1;stroke:#1a0f0a;stroke-opacity:1" /><path
   inkscape:connector-curvature="0"
   id="SO"
   data-name="Somalia"
   data-id="SO"
   d="m 832.6,372.8 -5.7,-5.8 -2.5,-5.7 -4.1,-2.6 -4.2,7.4 -2.5,4.9 4.8,7.7 4.6,6.6 4.8,5 40.3,16.4 10.3,-0.1 -33.5,41.5 -15.9,0.6 -10.7,9.8 -7.8,0.2 -3.3,4.4 -10.5,15.7 0.4,50.4 7.2,11.4 2.7,-3.3 2.9,-7.3 13.4,-16.7 11.4,-10.6 18.1,-13.7 12.1,-11.2 14.1,-18.9 10.1,-15.5 10,-20.2 7,-17.7 5.4,-15.5 2.9,-14.9 2.4,-5 -0.4,-7.3 0.8,-8 -0.5,-3.9 -4.6,0.1 -5.5,4.7 -6.4,1.4 -5.5,2.1 -3.9,0.2 v 0 l -6.9,0.5 -4.2,2.6 -6,0.9 -10.5,4.3 -13.2,1.6 -11.3,3.5 z"
   style="fill:#fdf6ec;fill-opacity:1;stroke:#1a0f0a;stroke-opacity:1" /></g><g
         id="g3"><path
           style="fill:none;stroke:#1a0f0a;stroke-width:0.1;stroke-linecap:butt;stroke-linejoin:miter;stroke-dasharray:none;stroke-opacity:1"
           d="m -76.425126,434.45691 0.654168,-13.35329"
           id="path13"
           sodipodi:nodetypes="cc" /><path
           style="fill:none;stroke:#1a0f0a;stroke-width:0.1;stroke-linecap:butt;stroke-linejoin:miter;stroke-dasharray:none;stroke-opacity:1"
           d="m -75.224497,435.11831 10.522763,-7.79586"
           id="path15"
           sodipodi:nodetypes="cc" /><g
           id="g2"><circle
             style="fill:#eaeaea;fill-opacity:1;stroke:#1a0f0a;stroke-width:0.165;stroke-linecap:square;stroke-dasharray:0.165, 0.495;stroke-dashoffset:0;stroke-opacity:1"
             id="circle13"
             cx="-68.298424"
             cy="420.75534"
             r="7.4657516" /><path
             id="MUBL"
             style="fill:#fdf6ec;fill-opacity:1;stroke:#1a0f0a;stroke-width:0.0887206;stroke-linecap:round;stroke-linejoin:round;stroke-dasharray:none;stroke-opacity:1"
             d="m -67.391706,414.76418 c -0.0846,0.0952 0.09111,0.0325 0,0 z m 0.263169,0.0203 c -0.0039,0.16515 -0.205816,-5.2e-4 -0.242425,0.13212 -0.10576,0.005 -0.128126,0.22533 -0.220053,0.11015 -0.03254,0.0422 -0.0082,0.15207 -0.109818,0.22046 -0.09193,0.11015 0.237951,0.11552 0.04393,0.19809 -0.06549,-0.0117 -0.23673,0.0203 -0.220459,-10e-4 -0.130574,-0.10445 0.119593,-0.17125 0,-0.24242 -0.09438,0.0422 -0.20297,0.008 -0.286355,-0.0443 -0.08012,-0.0117 -0.0082,0.13145 0.04433,0.1989 0.06509,0.13463 -0.04067,0.19728 -0.108594,0.28472 -0.113892,0.0476 -0.08705,0.1745 -0.133408,0.26602 -0.05491,0.0847 -0.139511,0.14 -0.264797,0.15459 -0.09233,0.0245 -0.135453,0.0781 -0.154164,0.22046 -0.01626,0.0508 -0.02441,0.15056 -0.08663,0.26275 -0.06061,0.0525 -0.1322,0.18264 -0.06792,0.28798 0.181818,0.0642 -0.104537,0.0952 -0.08827,0.19849 0.01626,0.11032 0.129753,0.15626 0.176123,0.24244 -0.08948,0.0419 -0.206221,0.087 -0.285946,0.13262 -0.05653,0.0728 -0.0903,0.18506 -0.132603,0.28635 0.02441,0.13144 0.04678,0.26235 0.132603,0.24242 0.139109,0.0508 0.0082,0.14603 -0.06183,-10e-4 -0.07769,0.0117 -0.281472,0.0825 -0.220053,0.17613 0.05816,0.0325 0.158641,0.14771 0.220461,0.13212 -0.148867,0.14922 0.248118,0.008 0.04393,0.0882 -0.004,0.0728 -0.139109,0.11015 -0.109818,0 -0.07565,-0.0545 -0.22697,-0.16481 -0.264797,-0.0203 -0.107789,0.10445 -0.08053,0.13782 -0.110237,0.26438 -0.0427,-0.008 -0.118771,0.18467 -0.06589,0 0.05206,-0.0719 -0.136258,-0.15575 -0.220053,-0.0907 -0.114295,0.0245 -0.192395,0.0867 -0.308319,0.11015 -0.08948,0.0781 -0.169208,0.0414 -0.286761,0.0882 -0.04352,0.0813 -0.127724,0.1623 -0.176122,0.24284 -0.146016,0.003 -0.189953,0.0932 -0.242425,0.17611 -0.164324,0.0468 -0.04148,0.12122 -0.06467,0.2404 -0.02441,0.16062 -0.03254,0.18833 -0.199715,0.15575 -0.002,0.12441 -0.158222,0.15576 -0.109818,0.26439 -0.05125,0.0756 -0.07444,0.20662 -0.1322,0.28677 0.122023,0.081 0.01224,0.18466 -0.02034,0.26438 -0.01224,0.11669 -0.107387,0.18629 -0.1322,0.28677 -0.04393,0.10378 -0.138304,0.14838 -0.154165,0.26438 -0.04067,0.0993 -0.02441,0.27212 0,0.37462 0.07199,0.0939 -0.002,0.2896 0.132201,0.28675 0.05328,0.0414 0.231847,0.12122 0.11022,0.22006 -0.104536,0.0516 -0.182225,0.0858 -0.242424,0.17653 -0.03254,0.0981 -0.004,0.27091 -0.06631,0.35226 0.01224,0.12574 0.195243,0.0842 0.198497,0.22045 0.05451,-10e-4 0.139109,0.0768 0,0.0662 -0.09803,0.0414 -0.262356,0.0168 -0.220461,0.19809 -8.41e-4,0.14067 0.203377,0.0756 0.264388,0.15458 0.09966,2.5e-4 0.109014,0.18834 -0.02034,0.17653 -0.17653,0.0203 6.31e-4,0.13464 -0.06631,0.26439 0.0082,0.0684 -0.03254,0.15173 -0.08826,0.24242 -0.06834,0.11468 -0.07077,0.12943 -0.152537,0.24081 -0.05369,0.0821 -0.115519,0.13011 -0.177751,0.22208 -0.06304,0.11351 -0.0907,0.0406 -0.220459,0.0203 -0.08583,-0.0117 -0.353063,-0.0203 -0.198088,-0.13178 0.0366,-0.12357 -0.122426,-0.0642 -0.110238,0.0882 -0.04881,0.0667 -0.09925,0.18833 -0.131781,0.28635 -0.03662,0.0964 -0.123248,0.25301 0.02034,0.2644 0.121621,0.0168 0.102911,-0.23429 0.220461,-0.15458 0.121621,-0.008 0.234289,-0.0528 0.285947,0.0443 0.05613,0.0967 0.100882,0.18223 0.154165,0.26438 0.111444,0.0285 0.07972,0.19932 0.17653,0.24242 0.111042,0.0245 0.202563,0.0325 0.26439,-0.0662 0.04148,-0.15207 -0.01626,0.23591 0.112265,0.14922 0.08257,0.057 0.173276,0.10529 0.264388,0.15408 0.163101,-0.0245 0.136258,0.14284 0.285948,0.13178 0.144389,-0.002 0.138706,0.15173 0.308318,0.11065 0.153343,0.0117 0.237948,-0.0411 0.352246,-0.0662 0.06101,-0.061 0.0907,-0.23754 0.154164,-0.0882 0.104537,-0.10781 0.133005,0.0805 0.264388,0.0761 0.143987,-0.003 0.08827,0.19076 0.264797,0.15408 0.06224,0.0895 0.140332,0.0525 0.286353,0.0443 0.114295,-0.0605 0.264388,0.002 0.331097,0.0439 0.115116,0.16145 0.156998,-0.11183 0.218425,-0.0456 -0.0082,0.13212 0.143988,0.15542 0.244457,0.11183 0.120397,-0.0582 0.141958,-0.0508 0.306692,-0.0867 0.048,-0.0753 0.230628,-0.0687 0.287979,-0.0676 0.122024,-0.0168 0.20419,-0.0842 0.308726,-0.0659 0.141959,0.002 0.18263,-0.0964 0.263983,-0.15458 0.06834,-0.10496 0.153745,-0.0585 0.285945,-0.0882 0.07322,-0.0627 0.219646,-0.052 0.257474,-0.15006 0.0846,0.0659 0.200123,0.005 0.28676,-0.0443 0.128529,-0.0325 0.178564,-0.0245 0.286761,-0.0882 0.07525,-0.0724 0.170837,-0.0684 0.242423,-0.13211 0.06101,-0.0366 0.298964,-0.0741 0.198088,-0.13179 -0.130575,0.10814 0.02034,-0.0924 0.08826,-0.11065 0.07119,0.003 0.154969,-0.11837 0.154164,-0.17613 0.11349,-0.0468 0.160669,-0.0768 0.220461,-0.15375 0.07769,-0.0545 0.138706,-0.10864 0.02034,-0.13211 -0.254629,-0.0245 0.06955,-0.087 -0.04393,-0.11016 0.05451,-0.0325 0.158221,0.14117 0.242424,0.0439 0.07729,0.13547 0.13666,-0.0245 0.198088,-0.0882 0.08623,-0.061 0.05083,-0.27171 -0.04393,-0.28635 -0.04718,-0.0245 -0.04068,-0.17368 -0.132201,-0.0664 -0.120799,0.0439 -0.07402,-0.17978 -0.08826,-0.24242 0.004,-0.0822 -0.181006,-0.18914 -0.110238,-0.0443 -0.118368,-0.0728 -0.07687,-0.1343 -0.17653,-0.19808 -8.4e-4,-0.0451 0.147659,-0.10663 0.11064,-0.17613 0.03254,-0.0667 0.01224,-0.20094 0.04393,-0.28676 -0.135453,-0.10446 0.136258,-0.10865 0.154164,-0.0439 0.0082,0.10948 0.06712,0.22616 0.154567,0.0882 0.15579,-0.002 0.128529,-5e-5 0.264388,-0.0664 0.05653,-0.0822 0.114713,-0.1623 0.176124,-0.23917 0.0366,-0.12407 0.0419,-0.18384 0.154567,-0.17613 0.07932,0.0599 0.29815,0.005 0.242424,-0.0882 0.06426,-0.0676 -0.09233,-0.24812 0.06549,-0.17613 0.104536,0.0573 0.305471,-0.0245 0.154566,-0.0882 -0.189546,0.002 -0.138287,-0.0716 -0.08948,-0.21925 -0.09641,-0.1415 0.136258,-0.11468 0.176122,-0.19849 0.004,-0.13095 -0.004,-0.24527 -0.09233,-0.2827 -0.162295,-0.0406 0.05125,-0.14066 0.08826,-0.19807 0.05166,0.0798 0.216393,0.13061 0.220461,-0.0203 -0.05451,-0.11099 -0.07972,-0.20622 0.02034,-0.26438 -0.124874,-0.0827 0.05736,-0.0599 0.06589,-0.17613 0.07972,-0.13866 -0.186291,-0.12323 -0.02441,-0.22046 0.146435,-0.0927 -0.14154,-0.13865 -0.131782,-0.15408 0.126098,-0.0594 -0.105761,-0.0325 -0.02441,-0.17611 0.138706,-0.0422 0.243643,0.0117 0.286759,-0.0887 0.127321,-0.0365 0.02034,-0.21355 -0.04393,-0.24202 -0.02441,-0.12407 -0.14724,-0.13715 -0.17653,-0.24242 1.23e-4,-0.13949 -0.150912,-0.12809 -0.176124,-0.24244 -0.06386,-0.0406 -0.172463,-0.12809 -0.154165,-0.26438 0.04312,-0.0798 -0.08582,-0.17816 -0.04393,-0.33068 -0.05858,-0.0203 -0.133424,-0.0952 -0.19809,-0.17653 -0.21029,-0.0599 -0.104939,0.0203 -0.04433,0.11015 -0.0366,0.14402 -0.18263,-0.19199 -0.154164,-0.0443 -0.07402,0.15743 -0.05856,-0.0736 -0.154567,-0.0882 -0.113892,-0.15576 0.09438,-0.002 0.110639,-0.13212 0.02847,-0.1688 -0.125678,0.002 -0.198495,-0.0439 -0.161474,0.0501 -0.05856,-0.1224 0.04433,-0.0662 0.205815,0.0662 -0.104939,-0.12206 0.02034,-0.0882 0.09803,-0.0716 0.221679,0.0245 0.242424,-0.13228 -0.119592,-0.13346 0.163922,-0.14805 0.04433,-0.24201 -0.06142,-0.10177 -0.09436,-0.18182 -0.154165,-0.2644 -0.02034,-0.10093 -0.188732,-0.0676 -0.257881,-0.13178 -0.141958,-0.0285 -0.199307,5.2e-4 -0.286353,-0.0439 -0.004,4e-5 -0.156193,-0.0471 -0.198494,-0.13228 0.01224,-0.12005 -0.116323,-0.0365 -0.04393,-0.15458 0.217207,-0.0741 -0.107789,0.0325 -0.04433,-0.0662 -0.06304,-0.077 -0.107387,-0.17205 -0.198496,-0.22046 -0.05043,-0.0245 -0.08988,-0.16347 -0.109818,-0.22005 -0.08298,-0.002 0.0541,-0.15978 -0.110237,-0.13262 -0.01626,-0.008 0.08338,-0.13145 -0.02441,-0.17613 0.03254,0.0117 0.133408,-0.18181 0.06589,-0.26438 -0.140332,-0.0168 -0.01224,-0.0748 -0.04393,-0.1981 0.08217,-0.0801 -0.186699,-0.10696 -0.110639,-0.13211 0.179379,0.057 0.09193,-0.23959 0.110639,-0.17613 -0.127724,-0.0464 -0.204596,-0.0203 -0.308726,-0.0664 -0.06874,-0.0996 -0.18019,-0.0599 -0.198493,-0.17653 -0.05776,0.0406 -0.04923,0.18263 -0.198088,0.0883 -0.09843,-0.0366 -0.100882,-0.10579 -0.176531,-0.19891 -0.133408,0.05 0.06224,-0.14721 -0.08827,-0.11015 -0.07484,-0.0245 -0.178562,0.0203 -0.285946,-0.0443 -0.0082,-0.0285 -0.09478,-0.0501 -0.132603,-0.0365 z m 0.616637,0.35226 c 0.02034,0.0691 0.04148,-0.0285 0,0 z m 0.396174,0.0443 c 0.06712,0.0117 -0.01224,-0.0671 0,0 z m 0.418224,0.83648 c -0.01224,0.0676 0.06834,-0.0117 0,0 z m -0.02034,0.0882 c -0.01224,0.0684 0.06752,-0.0117 0,0 z m 0.06589,0.30831 c 0.06752,0.0117 -0.01224,-0.0676 0,0 z m 0.06629,0.0882 c 0.06752,0.0117 -0.01224,-0.0684 0,0 z m 0.851943,1.67211 c 0.06752,0.0117 -0.01224,-0.0676 0,0 z m 0.242017,0.0882 c -0.01224,0.0676 0.06752,-0.0117 0,0 z m -0.896603,4.99191 c 0.06874,-0.0203 -0.02847,-0.0416 0,0 z m 0.131782,0 c 0.06834,0.0117 -0.01224,-0.0676 0,0 z m -6.35786,-2.64046 c 0.02441,-0.0602 -0.05898,0.0245 0,0 z m 4.156679,-5.67464 c 0.01224,-0.0671 -0.06711,0.0117 0,0 z m 1.189059,0.22046 c 0.06629,0.008 -0.02034,0.14519 0,0 z m 0.85666,0.46373 c -0.198494,0.0203 0.07322,0.18589 -0.08826,0.1985 -0.08175,-2.6e-4 -0.120397,0.0667 -0.109818,0.17612 0.104939,0.0691 0.152538,-0.0691 0.242425,-0.0443 0.0366,0.0485 0.305062,-0.003 0.131781,-0.0662 -0.07199,-0.0325 -0.220866,-0.13715 -0.168801,-0.1981 0.16025,0.0448 0.11064,-0.005 -0.0082,-0.0659 z m -0.261948,0.46077 c -0.01626,0.113 0.06711,-0.002 0,0 z m 0.06549,0.24202 c -0.01224,0.0676 0.06834,-0.0117 0,0 z m -3.412932,1.60557 c 0.01224,0.0365 -0.004,0.063 0,0 z m -0.699939,0.59045 c -0.01626,0.0553 -0.04312,0.12725 0,0 z m -0.04433,0.15408 c 0.05694,-0.0203 -1.22e-4,0.0245 0,0 z m 6.398209,1.60814 c -0.142763,0.0541 -0.120799,0.0406 -0.110639,0.0882 -0.186697,0.0117 0.08745,0.0117 0,0.15408 -0.05694,0.0285 -0.09111,0.31401 -0.04393,0.24202 0.04067,0.0285 0.243643,-0.13715 0.153745,-0.0882 0.0476,-0.0285 -0.121621,-0.168 0,-0.24202 -0.0082,-0.0842 0.04312,-0.1058 3.69e-4,-0.15408 z m -0.198495,0.0882 c 0.01224,-0.0684 -0.06752,0.0117 0,0 z m -0.04393,0.59343 c -0.08948,0.0833 0.139108,0.0448 0,0 z m -8.442625,2.48457 c -0.08257,0.0565 -0.154567,0.12407 -0.131782,0.28595 0.04312,0.10177 0.06914,-0.17491 0.154164,-0.17653 0.002,-0.0961 0.126903,-0.0887 -0.02441,-0.10982 z m 7.277646,0.0879 c -0.199716,0.0704 0.127724,0.17897 0.04393,0.0203 -0.0476,0.0245 0.004,-0.048 -0.04393,-0.0203 z m -0.439699,0.63766 c -0.02034,0.12776 0.122023,-0.0245 0,0 z m -7.038924,0.20257 c 0.08012,-0.0203 0.04515,0.0655 0,0 z m -0.02034,0.17083 c -0.02441,0.24039 0.128948,0.0736 0,0 z" /></g></g><g
         id="g4"
         style="stroke:#1a0f0a;stroke-opacity:1"><circle
           style="fill:#ffffff;fill-opacity:1;stroke:#1a0f0a;stroke-width:0.017;stroke-linecap:square;stroke-dasharray:none;stroke-opacity:1"
           id="path4"
           cx="-75.706123"
           cy="434.56204"
           r="0.77687114" /><path
           id="path1"
           style="fill:#d4a843;fill-opacity:1;stroke:#1a0f0a;stroke-width:0.00373285;stroke-linecap:round;stroke-linejoin:round;stroke-dasharray:none;stroke-opacity:1"
           d="m -75.6107,433.89878 c -0.01,0.0109 0.0105,0.004 0,0 z m 0.0302,0.002 c -3.8e-4,0.0189 -0.0236,-7e-5 -0.0278,0.0152 -0.0121,3.8e-4 -0.0147,0.0258 -0.0252,0.0126 -0.004,0.005 -9.6e-4,0.0174 -0.0126,0.0253 -0.0105,0.0126 0.0273,0.0132 0.005,0.0227 -0.008,-0.001 -0.0271,0.002 -0.0253,-8e-5 -0.015,-0.012 0.0137,-0.0196 0,-0.0278 -0.0108,0.005 -0.0233,9.5e-4 -0.0328,-0.005 -0.009,-10e-4 -9.5e-4,0.015 0.005,0.0228 0.007,0.0154 -0.005,0.0226 -0.0125,0.0326 -0.013,0.005 -0.01,0.02 -0.0153,0.0305 -0.006,0.01 -0.016,0.0161 -0.0303,0.0177 -0.0106,0.003 -0.0155,0.009 -0.0177,0.0253 -0.002,0.006 -0.003,0.0173 -0.01,0.0301 -0.007,0.006 -0.0152,0.0209 -0.008,0.033 0.0208,0.007 -0.012,0.0109 -0.0101,0.0227 0.002,0.0126 0.0149,0.0179 0.0202,0.0278 -0.0103,0.005 -0.0236,0.01 -0.0328,0.0152 -0.006,0.008 -0.0104,0.0212 -0.0152,0.0328 0.003,0.0151 0.005,0.0301 0.0152,0.0278 0.016,0.006 9.6e-4,0.0167 -0.007,-9e-5 -0.009,10e-4 -0.0323,0.009 -0.0252,0.0202 0.007,0.004 0.0182,0.0169 0.0253,0.0152 -0.0171,0.0171 0.0285,9.6e-4 0.005,0.0101 -3.8e-4,0.008 -0.016,0.0126 -0.0126,0 -0.009,-0.006 -0.026,-0.0189 -0.0304,-0.002 -0.0124,0.012 -0.009,0.0158 -0.0126,0.0303 -0.005,-9.6e-4 -0.0136,0.0212 -0.008,0 0.006,-0.008 -0.0156,-0.0179 -0.0252,-0.0104 -0.0131,0.003 -0.0221,0.01 -0.0353,0.0126 -0.0103,0.009 -0.0194,0.005 -0.0329,0.0101 -0.005,0.009 -0.0146,0.0186 -0.0202,0.0278 -0.0167,3.9e-4 -0.0218,0.0107 -0.0278,0.0202 -0.0188,0.005 -0.005,0.0139 -0.007,0.0276 -0.003,0.0184 -0.004,0.0216 -0.0229,0.0179 -1.9e-4,0.0143 -0.0181,0.0179 -0.0126,0.0303 -0.006,0.009 -0.009,0.0237 -0.0152,0.0329 0.014,0.009 0.001,0.0212 -0.002,0.0303 -0.001,0.0134 -0.0123,0.0214 -0.0152,0.0329 -0.005,0.0119 -0.0159,0.017 -0.0177,0.0303 -0.005,0.0114 -0.003,0.0312 0,0.0429 0.008,0.0108 -1.9e-4,0.0332 0.0152,0.0329 0.006,0.005 0.0266,0.0139 0.0126,0.0252 -0.012,0.006 -0.0209,0.01 -0.0278,0.0202 -0.004,0.0112 -3.9e-4,0.031 -0.008,0.0404 0.001,0.0144 0.0224,0.01 0.0228,0.0253 0.006,-9e-5 0.016,0.009 0,0.008 -0.0112,0.005 -0.0301,0.002 -0.0253,0.0227 -8e-5,0.0161 0.0233,0.009 0.0303,0.0177 0.0114,3e-5 0.0125,0.0216 -0.002,0.0202 -0.0202,0.002 7e-5,0.0154 -0.008,0.0303 9.5e-4,0.008 -0.004,0.0174 -0.0101,0.0278 -0.008,0.0131 -0.008,0.0148 -0.0175,0.0276 -0.006,0.009 -0.0132,0.0149 -0.0204,0.0255 -0.007,0.013 -0.0104,0.005 -0.0253,0.002 -0.01,-10e-4 -0.0405,-0.002 -0.0227,-0.0151 0.004,-0.0142 -0.014,-0.007 -0.0126,0.0101 -0.006,0.008 -0.0114,0.0216 -0.0151,0.0328 -0.004,0.011 -0.0141,0.029 0.002,0.0303 0.0139,0.002 0.0118,-0.0269 0.0253,-0.0177 0.0139,-9.6e-4 0.0269,-0.006 0.0328,0.005 0.006,0.0111 0.0116,0.0209 0.0177,0.0303 0.0128,0.003 0.009,0.0229 0.0202,0.0278 0.0127,0.003 0.0232,0.004 0.0303,-0.008 0.005,-0.0174 -0.002,0.027 0.0129,0.0171 0.009,0.007 0.0199,0.0121 0.0303,0.0177 0.0187,-0.003 0.0156,0.0164 0.0328,0.0151 0.0165,-1.9e-4 0.0159,0.0174 0.0353,0.0127 0.0176,0.001 0.0273,-0.005 0.0404,-0.008 0.007,-0.007 0.0104,-0.0272 0.0177,-0.0101 0.012,-0.0124 0.0152,0.009 0.0303,0.009 0.0165,-3.8e-4 0.0101,0.0219 0.0303,0.0177 0.007,0.0103 0.0161,0.006 0.0328,0.005 0.0131,-0.007 0.0303,1.9e-4 0.038,0.005 0.0132,0.0185 0.018,-0.0128 0.025,-0.005 -9.5e-4,0.0152 0.0165,0.0178 0.028,0.0128 0.0138,-0.007 0.0163,-0.006 0.0352,-0.01 0.005,-0.009 0.0264,-0.008 0.033,-0.008 0.014,-0.002 0.0234,-0.01 0.0354,-0.008 0.0163,1.9e-4 0.0209,-0.011 0.0303,-0.0177 0.008,-0.012 0.0176,-0.007 0.0328,-0.0101 0.008,-0.007 0.0252,-0.006 0.0295,-0.0172 0.01,0.008 0.0229,3.9e-4 0.0329,-0.005 0.0147,-0.004 0.0205,-0.003 0.0329,-0.0101 0.009,-0.008 0.0196,-0.008 0.0278,-0.0151 0.007,-0.004 0.0343,-0.008 0.0227,-0.0151 -0.015,0.0124 0.002,-0.0106 0.0101,-0.0127 0.008,3.8e-4 0.0178,-0.0136 0.0177,-0.0202 0.013,-0.005 0.0184,-0.009 0.0253,-0.0176 0.009,-0.006 0.0159,-0.0125 0.002,-0.0152 -0.0292,-0.003 0.008,-0.01 -0.005,-0.0126 0.006,-0.004 0.0181,0.0162 0.0278,0.005 0.009,0.0155 0.0157,-0.003 0.0227,-0.0101 0.01,-0.007 0.006,-0.0312 -0.005,-0.0328 -0.005,-0.003 -0.005,-0.0199 -0.0152,-0.008 -0.0138,0.005 -0.008,-0.0206 -0.0101,-0.0278 3.8e-4,-0.009 -0.0207,-0.0217 -0.0126,-0.005 -0.0136,-0.008 -0.009,-0.0154 -0.0202,-0.0227 -8e-5,-0.005 0.0169,-0.0122 0.0127,-0.0202 0.004,-0.008 0.001,-0.023 0.005,-0.0329 -0.0155,-0.012 0.0156,-0.0125 0.0177,-0.005 9.6e-4,0.0126 0.008,0.0259 0.0177,0.0101 0.0179,-1.7e-4 0.0147,0 0.0303,-0.008 0.006,-0.009 0.0131,-0.0186 0.0202,-0.0274 0.004,-0.0142 0.005,-0.0211 0.0177,-0.0202 0.009,0.007 0.0342,3.8e-4 0.0278,-0.0101 0.007,-0.008 -0.0106,-0.0285 0.008,-0.0202 0.012,0.007 0.035,-0.003 0.0177,-0.0101 -0.0217,1.7e-4 -0.0159,-0.008 -0.0103,-0.0251 -0.0111,-0.0162 0.0156,-0.0131 0.0202,-0.0227 3.8e-4,-0.015 -3.8e-4,-0.0281 -0.0106,-0.0324 -0.0186,-0.005 0.006,-0.0161 0.0101,-0.0227 0.006,0.009 0.0248,0.015 0.0253,-0.002 -0.006,-0.0127 -0.009,-0.0236 0.002,-0.0303 -0.0143,-0.009 0.007,-0.007 0.008,-0.0202 0.009,-0.0159 -0.0214,-0.0141 -0.003,-0.0253 0.0168,-0.0106 -0.0162,-0.0159 -0.0151,-0.0177 0.0145,-0.007 -0.0121,-0.004 -0.003,-0.0202 0.0159,-0.005 0.0279,10e-4 0.0329,-0.0102 0.0146,-0.004 0.002,-0.0245 -0.005,-0.0277 -0.003,-0.0142 -0.0169,-0.0157 -0.0202,-0.0278 1e-5,-0.016 -0.0173,-0.0147 -0.0202,-0.0278 -0.007,-0.005 -0.0198,-0.0147 -0.0177,-0.0303 0.005,-0.009 -0.01,-0.0204 -0.005,-0.0379 -0.007,-0.002 -0.0153,-0.0109 -0.0227,-0.0202 -0.0241,-0.007 -0.012,0.002 -0.005,0.0126 -0.004,0.0165 -0.0209,-0.022 -0.0177,-0.005 -0.008,0.0181 -0.007,-0.008 -0.0177,-0.0101 -0.013,-0.0179 0.0108,-1.9e-4 0.0127,-0.0152 0.003,-0.0193 -0.0144,1.7e-4 -0.0228,-0.005 -0.0185,0.006 -0.007,-0.014 0.005,-0.008 0.0236,0.008 -0.012,-0.014 0.002,-0.0101 0.0112,-0.008 0.0254,0.003 0.0278,-0.0151 -0.0137,-0.0153 0.0188,-0.017 0.005,-0.0277 -0.007,-0.0117 -0.0108,-0.0208 -0.0177,-0.0303 -0.002,-0.0115 -0.0216,-0.008 -0.0296,-0.0151 -0.0163,-0.003 -0.0229,7e-5 -0.0328,-0.005 -3.8e-4,0 -0.0179,-0.005 -0.0228,-0.0152 0.001,-0.0138 -0.0133,-0.004 -0.005,-0.0177 0.0249,-0.008 -0.0124,0.004 -0.005,-0.008 -0.007,-0.009 -0.0123,-0.0197 -0.0228,-0.0253 -0.006,-0.003 -0.0103,-0.0187 -0.0126,-0.0252 -0.01,-1.9e-4 0.006,-0.0183 -0.0126,-0.0152 -0.002,-9.6e-4 0.01,-0.0151 -0.003,-0.0202 0.004,10e-4 0.0153,-0.0208 0.008,-0.0303 -0.0161,-0.002 -0.001,-0.009 -0.005,-0.0227 0.009,-0.009 -0.0214,-0.0123 -0.0127,-0.0152 0.0206,0.007 0.0105,-0.0275 0.0127,-0.0202 -0.0146,-0.005 -0.0235,-0.002 -0.0354,-0.008 -0.008,-0.0114 -0.0207,-0.007 -0.0228,-0.0202 -0.007,0.005 -0.006,0.0209 -0.0227,0.0101 -0.0113,-0.004 -0.0115,-0.0121 -0.0202,-0.0228 -0.0153,0.006 0.007,-0.0169 -0.0101,-0.0126 -0.009,-0.003 -0.0205,0.002 -0.0328,-0.005 -9.5e-4,-0.003 -0.0109,-0.006 -0.0152,-0.004 z m 0.0707,0.0404 c 0.002,0.008 0.005,-0.003 0,0 z m 0.0454,0.005 c 0.008,10e-4 -0.001,-0.008 0,0 z m 0.0479,0.0959 c -0.001,0.008 0.008,-10e-4 0,0 z m -0.002,0.0101 c -0.001,0.008 0.008,-0.001 0,0 z m 0.008,0.0353 c 0.008,10e-4 -0.001,-0.008 0,0 z m 0.008,0.0101 c 0.008,0.001 -10e-4,-0.008 0,0 z m 0.0977,0.19168 c 0.008,10e-4 -0.001,-0.008 0,0 z m 0.0277,0.0101 c -10e-4,0.008 0.008,-10e-4 0,0 z m -0.10279,0.57225 c 0.008,-0.002 -0.003,-0.005 0,0 z m 0.0151,0 c 0.008,0.001 -0.001,-0.008 0,0 z m -0.72884,-0.30269 c 0.003,-0.007 -0.007,0.003 0,0 z m 0.4765,-0.65052 c 0.001,-0.008 -0.008,10e-4 0,0 z m 0.13631,0.0253 c 0.008,9.6e-4 -0.002,0.0166 0,0 z m 0.0982,0.0532 c -0.0228,0.002 0.008,0.0213 -0.0101,0.0228 -0.009,-3e-5 -0.0138,0.008 -0.0126,0.0202 0.012,0.008 0.0175,-0.008 0.0278,-0.005 0.004,0.006 0.035,-3.9e-4 0.0151,-0.008 -0.008,-0.004 -0.0253,-0.0157 -0.0194,-0.0227 0.0184,0.005 0.0127,-3.8e-4 -9.6e-4,-0.008 z m -0.03,0.0528 c -0.002,0.013 0.008,-1.9e-4 0,0 z m 0.007,0.0278 c -0.001,0.008 0.008,-10e-4 0,0 z m -0.39124,0.18405 c 10e-4,0.004 -3.8e-4,0.007 0,0 z m -0.0802,0.0677 c -0.002,0.006 -0.005,0.0146 0,0 z m -0.005,0.0177 c 0.007,-0.002 -1e-5,0.003 0,0 z m 0.73346,0.18435 c -0.0164,0.006 -0.0138,0.005 -0.0127,0.0101 -0.0214,10e-4 0.01,10e-4 0,0.0177 -0.007,0.003 -0.0105,0.036 -0.005,0.0277 0.005,0.003 0.0279,-0.0157 0.0176,-0.0101 0.005,-0.003 -0.0139,-0.0192 0,-0.0277 -9.6e-4,-0.01 0.005,-0.0121 4e-5,-0.0177 z m -0.0228,0.0101 c 0.001,-0.008 -0.008,10e-4 0,0 z m -0.005,0.068 c -0.0103,0.01 0.016,0.005 0,0 z m -0.96783,0.28482 c -0.009,0.006 -0.0177,0.0142 -0.0151,0.0328 0.005,0.0116 0.008,-0.0201 0.0177,-0.0202 1.9e-4,-0.011 0.0145,-0.0102 -0.003,-0.0126 z m 0.83428,0.0101 c -0.0229,0.008 0.0146,0.0205 0.005,0.002 -0.005,0.003 3.8e-4,-0.005 -0.005,-0.002 z m -0.0504,0.0731 c -0.002,0.0146 0.014,-0.003 0,0 z m -0.80691,0.0232 c 0.009,-0.002 0.005,0.007 0,0 z m -0.002,0.0196 c -0.003,0.0276 0.0148,0.008 0,0 z" /></g></g></g></svg>
