<?xml version="1.0" encoding="UTF-8" standalone="no"?>
<!-- Created with Inkscape (http://www.inkscape.org/) -->

<svg
   width="130.4798mm"
   height="270.93341mm"
   viewBox="0 0 130.4798 270.93341"
   version="1.1"
   id="svg1"
   xml:space="preserve"
   inkscape:version="1.3.2 (091e20e, 2023-11-25, custom)"
   sodipodi:docname="scrapbook1.svg"
   xmlns:inkscape="http://www.inkscape.org/namespaces/inkscape"
   xmlns:sodipodi="http://sodipodi.sourceforge.net/DTD/sodipodi-0.dtd"
   xmlns="http://www.w3.org/2000/svg"
   xmlns:svg="http://www.w3.org/2000/svg"><sodipodi:namedview
     id="namedview1"
     pagecolor="#ffffff"
     bordercolor="#666666"
     borderopacity="1.0"
     inkscape:showpageshadow="2"
     inkscape:pageopacity="0.0"
     inkscape:pagecheckerboard="0"
     inkscape:deskcolor="#d1d1d1"
     inkscape:document-units="mm"
     inkscape:zoom="0.27685343"
     inkscape:cx="-216.72117"
     inkscape:cy="901.19886"
     inkscape:window-width="1350"
     inkscape:window-height="1041"
     inkscape:window-x="389"
     inkscape:window-y="17"
     inkscape:window-maximized="0"
     inkscape:current-layer="layer1"
     showgrid="false" /><defs
     id="defs1" /><g
     inkscape:label="Layer 1"
     inkscape:groupmode="layer"
     id="layer1"
     transform="translate(-337.27262,-1073.6499)"><g
       style="fill:#1877f2;fill-opacity:1"
       id="g9"
       transform="matrix(0.53020309,0,0,0.53020309,266.78053,1073.3849)"><g
         id="7935ec95c421cee6d86eb22ecd11b7e3"
         style="fill:#1877f2;fill-opacity:1">

<path
   style="display:inline;fill:#1877f2;fill-opacity:1"
   d="m 283.122,122.174 c 0,5.24 0,22.319 0,46.583 h 83.424 l -9.045,74.367 h -74.379 c 0,114.688 0,268.375 0,268.375 h -98.726 c 0,0 0,-151.653 0,-268.375 h -51.443 v -74.367 h 51.443 c 0,-29.492 0,-50.463 0,-56.302 0,-27.82 -2.096,-41.02 9.725,-62.578 11.827,-21.557 45.187,-50.051 102.886,-49.365 57.713,0.711 82.04,6.263 82.04,6.263 l -12.501,79.257 c 0,0 -36.853,-9.731 -54.942,-6.263 -18.065,3.469 -28.482,14.597 -28.482,42.405 z"
   id="path1-3">

</path>

</g></g></g></svg>
